<svg width="88" height="66" viewBox="0 0 88 66" fill="none" xmlns="http://www.w3.org/2000/svg">
<g clip-path="url(#clip0)">
<path d="M43.8536 66C25.5157 66 10.6709 51.2369 10.6709 33C10.6709 14.7632 25.5157 0 43.8536 0C62.1914 0 77.0363 14.7632 77.0363 33C77.0363 51.2369 62.1914 66 43.8536 66Z" fill="#FFF6E7"/>
<path d="M58.0406 40.9229C58.0406 41.6832 57.9492 42.3039 58.4097 42.3039H87.1634C87.6242 42.3039 88.0003 41.6832 88.0003 40.9229C88.0003 40.1626 87.6242 39.5418 87.1634 39.5418H58.4097C57.9492 39.5418 58.0406 40.1626 58.0406 40.9229Z" fill="#414141"/>
<path d="M18.6215 40.2514C18.1706 40.5105 16.1347 37.8471 14.0923 34.326L2.98047 15.1704C0.938022 11.6494 -0.361625 8.56277 0.089449 8.3038C0.540435 8.04459 2.57628 10.708 4.61878 14.229L15.7305 33.3846C17.7729 36.9056 19.0725 39.9922 18.6215 40.2514Z" fill="#9F744E"/>
<path d="M19.7171 41.1378C19.5279 41.2468 17.7047 38.4505 15.6608 34.9166L4.54152 15.6912C2.49769 12.1574 -0.00218141 8.01647 1.18111 9.22855C2.36453 10.4406 3.18501 11.7614 5.22883 15.2951L16.3481 34.5205C18.3919 38.0544 19.9063 41.0288 19.7171 41.1378Z" fill="#FFF6E7"/>
<path d="M15.0283 38.5187C12.0865 38.5187 11.9863 38.7704 11.9863 35.8938C11.9863 33.0172 13.6911 33.1463 16.6329 33.1463C19.5747 33.1463 22.6346 38.5187 21.7812 38.5187C20.9278 38.5187 17.9702 38.5187 15.0283 38.5187Z" fill="#9F744E"/>
<path d="M15.9982 38.3741C13.5323 38.3741 13.4482 38.5918 13.4482 36.1039C13.4482 33.6161 14.8772 33.7277 17.3432 33.7277C19.8091 33.7277 22.374 38.3741 21.6586 38.3741C20.9434 38.3741 18.4641 38.3741 15.9982 38.3741Z" fill="#FFF6E7"/>
<path d="M58.3623 45.4783C63.0828 45.1757 66.8038 42.0433 66.8038 38.2335H58.3623H9.57087H0.438477C0.438477 42.2274 4.52762 45.4767 9.57087 45.502V45.5022H58.3623V45.4783Z" fill="#414141"/>
<path fill-rule="evenodd" clip-rule="evenodd" d="M0 37.7974H67.2425V38.2454C67.2425 42.244 63.4719 45.4138 58.8039 45.8791V45.9383H9.12909V45.9276C4.14018 45.7176 0 42.4388 0 38.2454V37.7974ZM9.61566 45.0421H57.9656L58.3247 45.0192C62.704 44.7392 66.042 41.9766 66.3224 38.6936H0.92004C1.21507 42.1415 4.88763 45.0185 9.58179 45.0419L9.61566 45.0421Z" fill="#414141"/>
<path d="M21.8417 25.5114C20.8262 26.2334 20.3184 27.2611 20.3184 28.5946C20.3184 29.8279 20.7648 30.7986 21.6577 31.5067C22.5507 32.2115 23.7772 32.5639 25.3373 32.5639C26.5982 32.5639 27.6322 32.303 28.4392 31.7814C29.2463 31.2597 29.7479 30.5826 29.9441 29.7501H27.6996C27.5475 30.1439 27.3562 30.4393 27.1256 30.6362C26.7086 31.0024 26.1027 31.1855 25.3079 31.1855C24.5327 31.1855 23.8937 30.9721 23.3908 30.5455C22.888 30.1189 22.6365 29.4772 22.6365 28.6205C22.6365 27.7637 22.8744 27.1013 23.3504 26.6332C23.8262 26.1651 24.4763 25.9311 25.3005 25.9311C26.11 25.9311 26.7209 26.097 27.133 26.4285C27.3635 26.6151 27.5524 26.8915 27.6996 27.2577H29.9662C29.9319 26.781 29.6816 26.3059 29.2156 25.8326C28.3717 24.9897 27.0372 24.5682 25.2122 24.5682C23.8483 24.5682 22.7248 24.8826 21.8417 25.5114Z" fill="#414141"/>
<path d="M36.9791 30.2403C36.9791 30.787 36.815 31.2086 36.4868 31.5053C36.1586 31.802 35.6883 31.9503 35.0759 31.9503C34.4636 31.9503 33.992 31.802 33.6614 31.5053C33.3307 31.2086 33.1653 30.787 33.1653 30.2403C33.1653 29.6937 33.3307 29.2729 33.6614 28.9778C33.992 28.6829 34.4636 28.5354 35.0759 28.5354C35.6883 28.5354 36.1586 28.6829 36.4868 28.9778C36.815 29.2729 36.9791 29.6937 36.9791 30.2403ZM35.0833 33.1453C36.4598 33.1453 37.4862 32.8612 38.1622 32.2929C38.8383 31.7245 39.1763 31.0403 39.1763 30.2403C39.1763 29.4537 38.8383 28.772 38.1622 28.1954C37.4862 27.6187 36.4598 27.3303 35.0833 27.3303C33.7067 27.3303 32.6803 27.6187 32.0043 28.1954C31.3283 28.772 30.9902 29.4537 30.9902 30.2403C30.9902 31.0403 31.3283 31.7245 32.0043 32.2929C32.6803 32.8612 33.7067 33.1453 35.0833 33.1453Z" fill="#414141"/>
<path d="M46.0811 30.2403C46.0811 30.787 45.92 31.2086 45.5976 31.5053C45.2752 31.802 44.8133 31.9503 44.2119 31.9503C43.6105 31.9503 43.1474 31.802 42.8226 31.5053C42.4978 31.2086 42.3355 30.787 42.3355 30.2403C42.3355 29.6937 42.4978 29.2729 42.8226 28.9778C43.1474 28.6829 43.6105 28.5354 44.2119 28.5354C44.8133 28.5354 45.2752 28.6829 45.5976 28.9778C45.92 29.2729 46.0811 29.6937 46.0811 30.2403ZM44.2192 33.1453C45.5711 33.1453 46.5791 32.8612 47.2431 32.2929C47.9071 31.7245 48.2391 31.0403 48.2391 30.2403C48.2391 29.4537 47.9071 28.772 47.2431 28.1954C46.5791 27.6187 45.5711 27.3303 44.2192 27.3303C42.8671 27.3303 41.8591 27.6187 41.1952 28.1954C40.5312 28.772 40.1992 29.4537 40.1992 30.2403C40.1992 31.0403 40.5312 31.7245 41.1952 32.2929C41.8591 32.8612 42.8671 33.1453 44.2192 33.1453Z" fill="#414141"/>
<path d="M49.7012 32.8546H51.7824V30.9537L52.6595 30.2721L54.5994 32.8546H57.1563L54.2129 29.1526L57.0449 26.8416H54.421L51.7824 29.1138V24.7136H49.7012V32.8546Z" fill="#414141"/>
<path d="M77.3818 27.9881C77.1012 27.7445 76.7886 27.5739 76.4441 27.4765C76.0995 27.3791 75.7499 27.3303 75.3955 27.3303C74.8639 27.3303 74.3815 27.4086 73.9483 27.5653C73.5398 27.7218 73.1977 27.9671 72.922 28.3013C72.7645 28.0228 72.5331 27.795 72.2279 27.6174C71.8489 27.426 71.3518 27.3303 70.7364 27.3303C70.0866 27.3303 69.5575 27.4417 69.1489 27.6644C68.9176 27.7897 68.6714 28.0002 68.4106 28.2961V27.4661H66.3652V33.1453H68.4992V29.7211C68.4992 29.4114 68.5558 29.1782 68.669 29.0216C68.8757 28.7467 69.2794 28.6092 69.8799 28.6092C70.3968 28.6092 70.7438 28.7467 70.9211 29.0216C71.0194 29.1747 71.0687 29.42 71.0687 29.7576V33.1453H73.1878V29.7576C73.1878 29.5035 73.2444 29.2861 73.3577 29.1051C73.5792 28.7641 73.9803 28.5936 74.5612 28.5936C75.0633 28.5936 75.4079 28.7258 75.5949 28.9903C75.6934 29.1295 75.7426 29.3069 75.7426 29.5227V33.1453H77.8986L77.9134 29.5592C77.9134 29.1904 77.8888 28.9103 77.8396 28.7189C77.7608 28.43 77.6082 28.1864 77.3818 27.9881Z" fill="#414141"/>
<path d="M81.2467 29.6714C81.3154 29.3157 81.4833 29.0338 81.7506 28.8256C82.0179 28.6176 82.3943 28.5135 82.8798 28.5135C83.3264 28.5135 83.7 28.6117 84.0013 28.8081C84.3035 29.0044 84.4712 29.2922 84.5053 29.6714H81.2467ZM86.0063 28.3977C85.6584 28.0285 85.2167 27.7583 84.6821 27.5871C84.1475 27.416 83.5464 27.3303 82.8798 27.3303C81.7568 27.3303 80.8433 27.5838 80.1396 28.0906C79.4358 28.5974 79.084 29.3257 79.084 30.2757C79.084 31.2892 79.4738 32.0209 80.2536 32.4707C81.0333 32.9204 81.9333 33.1453 82.9534 33.1453C84.189 33.1453 85.1503 32.8785 85.8369 32.3448C86.2786 32.0092 86.526 31.6786 86.5799 31.353H84.4397C84.3268 31.5141 84.1964 31.64 84.0495 31.7306C83.7797 31.8984 83.4293 31.9823 82.9975 31.9823C82.5904 31.9823 82.2423 31.9135 81.9529 31.7759C81.4772 31.5544 81.2246 31.1684 81.1952 30.6179H86.6829C86.6928 30.1447 86.6704 29.7822 86.6164 29.5305C86.5235 29.1009 86.3201 28.7233 86.0063 28.3977Z" fill="#414141"/>
<path d="M57.5947 29.9471H58.4334L62.2724 25.0044H61.4339L57.5947 29.9471Z" fill="#E8DDCB"/>
<path d="M57.5947 31.2555H58.3198L58.3261 29.8018L57.5947 29.9051V31.2555Z" fill="#E8DDCB"/>
<path d="M62.418 33H63.7337V26.4582H62.418V33Z" fill="#E8DDCB"/>
<path d="M64.1734 26.4582H63.1494L63.1495 35.0353L64.1734 35.0352L64.1734 26.4582Z" fill="#9F744E"/>
<path d="M57.5947 30.0926V30.9648H64.9037V30.0926H57.5947Z" fill="#E8DDCB"/>
<path d="M57.5947 30.674V31.6917H64.9037V30.674H57.5947Z" fill="#9F744E"/>
<path d="M58.1787 30.0925H59.5788L63.5873 25.0044H62.263L58.1787 30.0925Z" fill="#9F744E"/>
</g>
<defs>
<clipPath id="clip0">
<rect width="88" height="66" fill="white"/>
</clipPath>
</defs>
</svg>
