<svg width="60" height="44" viewBox="0 0 60 44" fill="none" xmlns="http://www.w3.org/2000/svg">
<path d="M16.3818 19.0704C16.0782 19.2126 15.7884 19.3739 15.5122 19.5626C15.3864 19.6446 15.3317 19.8005 15.3755 19.9454C15.4192 20.0876 15.5532 20.186 15.7036 20.186C15.7692 20.186 15.8349 20.1669 15.8923 20.1286C16.1384 19.9618 16.3982 19.8169 16.6661 19.6938C16.8384 19.6145 16.915 19.4122 16.8357 19.2399C16.7564 19.0677 16.554 18.9938 16.3818 19.0704H16.3818Z" fill="#7DA571" stroke="#7DA571" stroke-width="0.5"/>
<path d="M59.2134 10.4898L54.4939 4.55616V1.57024C54.4939 1.48 54.4584 1.3925 54.3955 1.32961C54.3298 1.26399 54.2451 1.22844 54.1548 1.22844H34.8446C34.656 1.22844 34.5056 1.38157 34.5056 1.57024V4.56162L30.0048 10.4296C29.9583 10.4897 29.9364 10.5636 29.9337 10.6374V16.1936L27.1829 18.1733H27.1774L25.4821 19.3929V19.3956C24.9653 18.7639 24.3583 18.2116 23.6856 17.7549C24.4677 17.4733 25.0446 16.8033 25.2114 15.9913C25.3208 15.4854 25.195 14.9577 24.8696 14.5557C24.8067 14.4819 24.7384 14.4108 24.6618 14.3506C25.2606 14.0088 25.679 13.4264 25.813 12.7538C25.9223 12.2507 25.7965 11.7229 25.4712 11.321C25.2387 11.0421 24.9215 10.8507 24.5661 10.7741L24.6043 10.5663H24.6071C24.7411 9.93191 24.5879 9.27016 24.186 8.75888H24.1832C23.7704 8.26122 23.1524 7.97957 22.5071 7.99602C21.159 7.99602 19.8547 9.08977 19.6032 10.4406L19.5458 10.7523C18.5642 10.9054 17.7821 11.6547 17.5825 12.6281C17.4731 13.1312 17.5989 13.659 17.9243 14.0609C17.9872 14.1347 18.0556 14.2031 18.1294 14.266C17.536 14.605 17.1177 15.1847 16.981 15.8546C16.9399 16.0816 16.9399 16.314 16.981 16.5382C16.3274 16.6996 15.6958 16.9374 15.0997 17.2464C12.8603 15.6823 9.93448 15.4937 7.50891 16.7597C5.08628 18.023 3.56595 20.5304 3.56595 23.2621V23.2648C3.56869 23.664 3.6015 24.0632 3.66439 24.4597H0.708495C0.519824 24.4597 0.366699 24.6128 0.366699 24.8015C0.366699 25.8679 0.448732 26.9316 0.612791 27.9843V27.9871C0.615525 28.0062 0.61826 28.0281 0.623729 28.0499C1.68738 34.8148 6.01317 40.6227 12.1898 43.5837H12.1871C12.2336 43.6055 12.2855 43.6165 12.3348 43.6165H30.0427C30.0837 43.6165 30.1219 43.6083 30.1602 43.5919C30.1985 43.6083 30.2395 43.6165 30.2833 43.6165H58.9448C59.035 43.6165 59.1225 43.5809 59.1854 43.5153C59.251 43.4524 59.2866 43.3649 59.2866 43.2747V10.703C59.2866 10.6264 59.2592 10.5526 59.2127 10.4897L59.2134 10.4898ZM35.0144 5.02103H53.444L49.2577 10.2929H30.9702L35.0144 5.02103ZM49.7634 10.755L53.8103 5.65817V42.9332H49.7634V10.755ZM53.8103 1.91191V4.33454L35.1889 4.33727V1.91191L53.8103 1.91191ZM30.6172 10.9762H49.0741V42.9326H31.4292C36.9608 39.81 40.7644 34.3275 41.7514 28.052C41.7569 28.0301 41.7596 28.0055 41.7623 27.9836C41.9236 26.9309 42.0057 25.8673 42.0084 24.8008C42.0084 24.7106 41.9701 24.6258 41.9072 24.5602C41.8416 24.4973 41.7569 24.4618 41.6639 24.4618H37.4119C37.8084 23.6743 37.5049 22.7145 36.7283 22.2989L35.8862 21.8423L35.8971 21.8204C36.3893 20.918 36.1842 19.7997 35.4104 19.127C34.6365 18.4571 33.499 18.4161 32.6761 19.0313C32.5503 17.7845 32.1018 16.5922 31.369 15.575C31.3171 15.5012 31.2378 15.452 31.1475 15.4383C31.0573 15.4247 30.9671 15.4465 30.8932 15.4985L30.6198 15.7008L30.6172 10.9762ZM33.1984 22.2252L33.2012 22.2279C33.0344 22.1377 32.8266 22.1979 32.7363 22.3647L31.5988 24.4619H31.0219C32.0801 23.2041 32.6789 21.6236 32.7172 19.9803C33.1684 19.3459 34.0297 19.1627 34.7023 19.5565C35.3723 19.9475 35.6347 20.7897 35.3039 21.4924L35.1289 21.8151V21.8178C35.0387 21.9819 35.0988 22.1897 35.2656 22.2799L36.4086 22.9006C36.6847 23.051 36.8679 23.3272 36.898 23.6389C36.9308 23.9534 36.8023 24.2596 36.5617 24.462H32.3781L33.3351 22.6846C33.4226 22.5178 33.3625 22.3155 33.1984 22.2252L33.1984 22.2252ZM27.3715 24.4619H27.3742C27.3578 23.9533 27.2977 23.4447 27.191 22.947C28.1535 22.7037 28.8836 21.9217 29.0641 20.9455C29.2418 19.9693 28.8317 18.9794 28.0195 18.4134L31.0137 16.2588C31.689 17.3169 32.0445 18.5501 32.039 19.8052C32.0199 19.8654 32.0199 19.931 32.039 19.9912C31.9925 21.6783 31.2925 23.2806 30.0922 24.4619L27.3715 24.4619ZM27.4125 18.8455L27.4152 18.8483C28.0988 19.1983 28.4953 19.9366 28.4078 20.7021C28.3203 21.4677 27.768 22.0994 27.0215 22.2853C26.7672 21.4514 26.3871 20.6611 25.8922 19.9447L27.4125 18.8455ZM26.6879 24.4619H25.1648C25.0281 21.1396 22.2937 18.5146 18.9687 18.5092C18.78 18.5092 18.6269 18.6623 18.6269 18.851C18.6269 19.0397 18.78 19.1928 18.9687 19.1928C21.919 19.1955 24.3445 21.5143 24.4812 24.4619H13.4562C13.4945 23.5787 13.7433 22.7173 14.1836 21.9545C14.2793 21.7904 14.2218 21.5799 14.0578 21.4869C13.8964 21.3912 13.6859 21.4459 13.5929 21.61H13.5902C13.0898 22.4795 12.8082 23.4584 12.7699 24.4619H11.2468C11.3234 20.251 14.7605 16.8795 18.9685 16.8795C23.1794 16.8795 26.6167 20.251 26.6958 24.4619L26.6879 24.4619ZM9.32437 24.4619H9.3271C9.25601 24.276 9.21773 24.0764 9.21773 23.8768C9.21773 22.9471 9.9724 22.1924 10.9021 22.1924H10.9458C10.7161 22.928 10.5876 23.6881 10.5657 24.4565L9.32437 24.4619ZM17.653 15.9856C17.7897 15.261 18.5116 14.6513 19.2334 14.6513H19.2362C19.4248 14.6513 19.578 14.4982 19.578 14.3095C19.578 14.1181 19.4248 13.9677 19.2362 13.9677C18.9354 13.9759 18.6483 13.8528 18.4514 13.6259C18.26 13.3798 18.1862 13.0599 18.2573 12.7563C18.394 12.0345 19.1159 11.422 19.8377 11.422H19.835C19.999 11.422 20.1385 11.3072 20.1713 11.1486L20.2779 10.5798C20.4694 9.54074 21.4728 8.69311 22.5092 8.69311V8.69038C22.9494 8.67671 23.3733 8.86264 23.6576 9.19897C23.9283 9.55444 24.0295 10.0138 23.9311 10.4513L23.8244 11.0201C23.8053 11.1213 23.8326 11.2252 23.8982 11.3045C23.9611 11.381 24.0568 11.4275 24.1607 11.4248V11.4275C24.4588 11.4166 24.7459 11.5396 24.9428 11.7666V11.7638C25.1342 12.0127 25.208 12.3299 25.1397 12.6361C25.0029 13.358 24.281 13.9705 23.5592 13.9705V13.9732C23.3705 13.9732 23.2174 14.1236 23.2174 14.315C23.2174 14.5037 23.3705 14.6568 23.5592 14.6568C23.8572 14.6458 24.1444 14.7689 24.3412 14.9958C24.5354 15.2392 24.6065 15.5591 24.5381 15.8654C24.4014 16.59 23.6795 17.1997 22.9577 17.1997V17.2025C22.9057 17.2025 22.8537 17.2134 22.8073 17.238C22.326 16.9892 21.8229 16.7896 21.3034 16.6392L21.3198 16.5462L21.3225 16.5435C21.3444 16.5325 21.3635 16.5161 21.3827 16.497L22.8538 15.0095L22.8565 15.0122C22.9194 14.9466 22.9577 14.8591 22.9577 14.7689C22.9577 14.6759 22.9222 14.5884 22.8565 14.5228C22.7909 14.4599 22.7034 14.4243 22.6132 14.4243C22.5202 14.4243 22.4327 14.4626 22.3698 14.531L21.5386 15.3677L21.812 13.9294L23.212 12.5185C23.346 12.3818 23.3432 12.1657 23.2093 12.0318C23.0753 11.9005 22.8593 11.9005 22.7253 12.0372L22.0417 12.7318L22.2112 11.8267C22.244 11.6407 22.121 11.463 21.9378 11.4274C21.7518 11.3919 21.5714 11.5149 21.5386 11.7009L21.3089 12.9477L20.6253 12.0673H20.6226C20.5104 11.9169 20.2944 11.8868 20.144 11.9989C19.9937 12.111 19.9636 12.327 20.0757 12.4774L21.1257 13.8446L20.8522 15.3157L20.2644 14.5556C20.1495 14.4052 19.9335 14.3751 19.7831 14.4899C19.6327 14.6048 19.6026 14.8208 19.7175 14.9739L20.6745 16.2208L20.628 16.4669H20.6308C19.6409 16.2673 18.6265 16.2454 17.6284 16.404C17.6147 16.2645 17.6229 16.1251 17.653 15.9883L17.653 15.9856ZM4.24657 23.2642H4.24383C4.24383 20.8443 5.55906 18.6131 7.67817 17.4427C9.79728 16.2697 12.3868 16.3435 14.4348 17.6314H14.4375C12.9801 18.5665 11.8426 19.9255 11.1836 21.5252C11.0879 21.5142 10.9922 21.5087 10.8993 21.5087C9.59222 21.5115 8.53403 22.5697 8.5313 23.874C8.5313 24.0736 8.55865 24.2705 8.60787 24.4591H4.3532C4.28211 24.0654 4.24656 23.6662 4.24656 23.2642L4.24657 23.2642ZM1.36453 28.3064H22.8678C23.0565 28.3064 23.2069 28.1533 23.2069 27.9619C23.2069 27.7732 23.0565 27.6228 22.8678 27.6228H1.25533C1.13775 26.7997 1.07212 25.9739 1.05845 25.1454H41.3197C41.306 25.9739 41.2376 26.7997 41.1173 27.6228H34.8447C34.656 27.6228 34.5056 27.7732 34.5056 27.9619C34.5056 28.1533 34.656 28.3064 34.8447 28.3064H41.008C39.8841 34.5572 35.8974 39.9222 30.2343 42.7985C30.155 42.8067 30.0811 42.845 30.0265 42.9024L29.9581 42.9352H12.4147C6.61233 40.0969 2.5083 34.664 1.3652 28.3066L1.36453 28.3064ZM58.6035 42.935H54.5019V5.65439L58.6035 10.8223V42.935Z" fill="#7DA571" stroke="#7DA571" stroke-width="0.5"/>
<path d="M30.6171 27.9625C30.6171 27.8723 30.5816 27.7875 30.5187 27.7219C30.4531 27.659 30.3683 27.6234 30.2781 27.6234H26.7343C26.5457 27.6234 26.3953 27.7738 26.3953 27.9625C26.3953 28.1539 26.5457 28.307 26.7343 28.307H30.2781C30.3683 28.307 30.4531 28.2688 30.5187 28.2059C30.5816 28.1402 30.6171 28.0555 30.6171 27.9625V27.9625Z" fill="#7DA571" stroke="#7DA571" stroke-width="0.5"/>
</svg>
