<svg width="60" height="44" viewBox="0 0 60 44" fill="none" xmlns="http://www.w3.org/2000/svg">
<path d="M16.3818 19.0703C16.0782 19.2125 15.7884 19.3738 15.5122 19.5625C15.3864 19.6445 15.3317 19.8004 15.3755 19.9453C15.4192 20.0875 15.5532 20.1859 15.7036 20.1859C15.7692 20.1859 15.8349 20.1668 15.8923 20.1285C16.1384 19.9617 16.3982 19.8168 16.6661 19.6938C16.8384 19.6145 16.915 19.4121 16.8357 19.2398C16.7564 19.0676 16.554 18.9938 16.3818 19.0703H16.3818Z" fill="#7DA571" stroke="#7DA571" stroke-width="0.5"/>
<path d="M59.2134 10.4897L54.4939 4.55611V1.57019C54.4939 1.47995 54.4584 1.39245 54.3955 1.32957C54.3298 1.26394 54.2451 1.22839 54.1548 1.22839H34.8446C34.656 1.22839 34.5056 1.38152 34.5056 1.57019V4.56157L30.0048 10.4295C29.9583 10.4897 29.9364 10.5635 29.9337 10.6373V16.1936L27.1829 18.1733H27.1774L25.4821 19.3928V19.3955C24.9653 18.7639 24.3583 18.2116 23.6856 17.7549C24.4677 17.4732 25.0446 16.8033 25.2114 15.9912C25.3208 15.4854 25.195 14.9576 24.8696 14.5557C24.8067 14.4818 24.7384 14.4107 24.6618 14.3506C25.2606 14.0088 25.679 13.4264 25.813 12.7538C25.9223 12.2506 25.7965 11.7229 25.4712 11.3209C25.2387 11.042 24.9215 10.8506 24.5661 10.774L24.6043 10.5662H24.6071C24.7411 9.93186 24.5879 9.27012 24.186 8.75884H24.1832C23.7704 8.26118 23.1524 7.97953 22.5071 7.99598C21.159 7.99598 19.8547 9.08973 19.6032 10.4405L19.5458 10.7522C18.5642 10.9054 17.7821 11.6546 17.5825 12.628C17.4731 13.1312 17.5989 13.6589 17.9243 14.0609C17.9872 14.1347 18.0556 14.203 18.1294 14.2659C17.536 14.605 17.1177 15.1847 16.981 15.8546C16.9399 16.0815 16.9399 16.314 16.981 16.5382C16.3274 16.6995 15.6958 16.9374 15.0997 17.2464C12.8603 15.6823 9.93448 15.4936 7.50891 16.7597C5.08628 18.0229 3.56595 20.5303 3.56595 23.262V23.2648C3.56869 23.664 3.6015 24.0632 3.66439 24.4597H0.708495C0.519824 24.4597 0.366699 24.6128 0.366699 24.8015C0.366699 25.8678 0.448732 26.9315 0.612791 27.9843V27.987C0.615525 28.0062 0.61826 28.028 0.623729 28.0499C1.68738 34.8148 6.01317 40.6226 12.1898 43.5836H12.1871C12.2336 43.6055 12.2855 43.6164 12.3348 43.6164H30.0427C30.0837 43.6164 30.1219 43.6082 30.1602 43.5918C30.1985 43.6082 30.2395 43.6164 30.2833 43.6164H58.9448C59.035 43.6164 59.1225 43.5809 59.1854 43.5152C59.251 43.4524 59.2866 43.3649 59.2866 43.2746V10.7029C59.2866 10.6264 59.2592 10.5525 59.2127 10.4896L59.2134 10.4897ZM35.0144 5.02098H53.444L49.2577 10.2928H30.9702L35.0144 5.02098ZM49.7634 10.755L53.8103 5.65812V42.9331H49.7634V10.755ZM53.8103 1.91186V4.33449L35.1889 4.33722V1.91186L53.8103 1.91186ZM30.6172 10.9762H49.0741V42.9326H31.4292C36.9608 39.8099 40.7644 34.3275 41.7514 28.052C41.7569 28.0301 41.7596 28.0055 41.7623 27.9836C41.9236 26.9309 42.0057 25.8672 42.0084 24.8008C42.0084 24.7105 41.9701 24.6258 41.9072 24.5601C41.8416 24.4973 41.7569 24.4617 41.6639 24.4617H37.4119C37.8084 23.6742 37.5049 22.7144 36.7283 22.2989L35.8862 21.8422L35.8971 21.8203C36.3893 20.918 36.1842 19.7996 35.4104 19.1269C34.6365 18.457 33.499 18.416 32.6761 19.0312C32.5503 17.7844 32.1018 16.5922 31.369 15.575C31.3171 15.5012 31.2378 15.4519 31.1475 15.4383C31.0573 15.4246 30.9671 15.4465 30.8932 15.4984L30.6198 15.7008L30.6172 10.9762ZM33.1984 22.2252L33.2012 22.2279C33.0344 22.1377 32.8266 22.1978 32.7363 22.3646L31.5988 24.4619H31.0219C32.0801 23.2041 32.6789 21.6236 32.7172 19.9803C33.1684 19.3459 34.0297 19.1627 34.7023 19.5564C35.3723 19.9475 35.6347 20.7896 35.3039 21.4924L35.1289 21.815V21.8178C35.0387 21.9818 35.0988 22.1896 35.2656 22.2799L36.4086 22.9006C36.6847 23.051 36.8679 23.3271 36.898 23.6389C36.9308 23.9533 36.8023 24.2596 36.5617 24.4619H32.3781L33.3351 22.6845C33.4226 22.5178 33.3625 22.3154 33.1984 22.2252L33.1984 22.2252ZM27.3715 24.4619H27.3742C27.3578 23.9533 27.2977 23.4447 27.191 22.947C28.1535 22.7036 28.8836 21.9216 29.0641 20.9454C29.2418 19.9693 28.8317 18.9794 28.0195 18.4134L31.0137 16.2587C31.689 17.3169 32.0445 18.5501 32.039 19.8052C32.0199 19.8653 32.0199 19.931 32.039 19.9911C31.9925 21.6783 31.2925 23.2806 30.0922 24.4618L27.3715 24.4619ZM27.4125 18.8455L27.4152 18.8482C28.0988 19.1982 28.4953 19.9365 28.4078 20.7021C28.3203 21.4677 27.768 22.0994 27.0215 22.2853C26.7672 21.4513 26.3871 20.6611 25.8922 19.9446L27.4125 18.8455ZM26.6879 24.4619H25.1648C25.0281 21.1396 22.2937 18.5146 18.9687 18.5091C18.78 18.5091 18.6269 18.6623 18.6269 18.8509C18.6269 19.0396 18.78 19.1927 18.9687 19.1927C21.919 19.1955 24.3445 21.5142 24.4812 24.4618H13.4562C13.4945 23.5787 13.7433 22.7173 14.1836 21.9544C14.2793 21.7904 14.2218 21.5798 14.0578 21.4869C13.8964 21.3912 13.6859 21.4458 13.5929 21.6099H13.5902C13.0898 22.4794 12.8082 23.4583 12.7699 24.4618H11.2468C11.3234 20.2509 14.7605 16.8794 18.9685 16.8794C23.1794 16.8794 26.6167 20.2509 26.6958 24.4618L26.6879 24.4619ZM9.32437 24.4619H9.3271C9.25601 24.2759 9.21773 24.0763 9.21773 23.8767C9.21773 22.947 9.9724 22.1924 10.9021 22.1924H10.9458C10.7161 22.9279 10.5876 23.6881 10.5657 24.4564L9.32437 24.4619ZM17.653 15.9856C17.7897 15.2609 18.5116 14.6512 19.2334 14.6512H19.2362C19.4248 14.6512 19.578 14.4981 19.578 14.3094C19.578 14.118 19.4248 13.9676 19.2362 13.9676C18.9354 13.9758 18.6483 13.8528 18.4514 13.6258C18.26 13.3798 18.1862 13.0598 18.2573 12.7563C18.394 12.0345 19.1159 11.422 19.8377 11.422H19.835C19.999 11.422 20.1385 11.3071 20.1713 11.1485L20.2779 10.5798C20.4694 9.5407 21.4728 8.69307 22.5092 8.69307V8.69033C22.9494 8.67666 23.3733 8.8626 23.6576 9.19893C23.9283 9.55439 24.0295 10.0138 23.9311 10.4513L23.8244 11.02C23.8053 11.1212 23.8326 11.2251 23.8982 11.3044C23.9611 11.381 24.0568 11.4275 24.1607 11.4247V11.4275C24.4588 11.4165 24.7459 11.5396 24.9428 11.7665V11.7638C25.1342 12.0126 25.208 12.3298 25.1397 12.6361C25.0029 13.3579 24.281 13.9704 23.5592 13.9704V13.9731C23.3705 13.9731 23.2174 14.1235 23.2174 14.3149C23.2174 14.5036 23.3705 14.6567 23.5592 14.6567C23.8572 14.6458 24.1444 14.7688 24.3412 14.9958C24.5354 15.2392 24.6065 15.5591 24.5381 15.8653C24.4014 16.59 23.6795 17.1997 22.9577 17.1997V17.2024C22.9057 17.2024 22.8537 17.2134 22.8073 17.238C22.326 16.9891 21.8229 16.7895 21.3034 16.6391L21.3198 16.5462L21.3225 16.5434C21.3444 16.5325 21.3635 16.5161 21.3827 16.4969L22.8538 15.0094L22.8565 15.0122C22.9194 14.9466 22.9577 14.8591 22.9577 14.7688C22.9577 14.6758 22.9222 14.5884 22.8565 14.5227C22.7909 14.4598 22.7034 14.4243 22.6132 14.4243C22.5202 14.4243 22.4327 14.4626 22.3698 14.5309L21.5386 15.3676L21.812 13.9293L23.212 12.5184C23.346 12.3817 23.3432 12.1657 23.2093 12.0317C23.0753 11.9005 22.8593 11.9005 22.7253 12.0372L22.0417 12.7317L22.2112 11.8266C22.244 11.6407 22.121 11.4629 21.9378 11.4274C21.7518 11.3919 21.5714 11.5149 21.5386 11.7008L21.3089 12.9477L20.6253 12.0672H20.6226C20.5104 11.9168 20.2944 11.8867 20.144 11.9988C19.9937 12.111 19.9636 12.327 20.0757 12.4774L21.1257 13.8445L20.8522 15.3157L20.2644 14.5555C20.1495 14.4051 19.9335 14.3751 19.7831 14.4899C19.6327 14.6047 19.6026 14.8208 19.7175 14.9739L20.6745 16.2207L20.628 16.4668H20.6308C19.6409 16.2672 18.6265 16.2453 17.6284 16.4039C17.6147 16.2645 17.6229 16.125 17.653 15.9883L17.653 15.9856ZM4.24657 23.2642H4.24383C4.24383 20.8443 5.55906 18.613 7.67817 17.4427C9.79728 16.2696 12.3868 16.3435 14.4348 17.6314H14.4375C12.9801 18.5665 11.8426 19.9255 11.1836 21.5251C11.0879 21.5142 10.9922 21.5087 10.8993 21.5087C9.59222 21.5114 8.53403 22.5696 8.5313 23.8739C8.5313 24.0735 8.55865 24.2704 8.60787 24.4591H4.3532C4.28211 24.0653 4.24656 23.6661 4.24656 23.2642L4.24657 23.2642ZM1.36453 28.3063H22.8678C23.0565 28.3063 23.2069 28.1532 23.2069 27.9618C23.2069 27.7731 23.0565 27.6227 22.8678 27.6227H1.25533C1.13775 26.7997 1.07212 25.9739 1.05845 25.1454H41.3197C41.306 25.9739 41.2376 26.7997 41.1173 27.6227H34.8447C34.656 27.6227 34.5056 27.7731 34.5056 27.9618C34.5056 28.1532 34.656 28.3063 34.8447 28.3063H41.008C39.8841 34.5571 35.8974 39.9221 30.2343 42.7984C30.155 42.8066 30.0811 42.8449 30.0265 42.9024L29.9581 42.9352H12.4147C6.61233 40.0969 2.5083 34.664 1.3652 28.3066L1.36453 28.3063ZM58.6035 42.9349H54.5019V5.65434L58.6035 10.8223V42.9349Z" fill="#7DA571" stroke="#7DA571" stroke-width="0.5"/>
<path d="M30.6171 27.9625C30.6171 27.8722 30.5816 27.7875 30.5187 27.7218C30.4531 27.659 30.3683 27.6234 30.2781 27.6234H26.7343C26.5457 27.6234 26.3953 27.7738 26.3953 27.9625C26.3953 28.1539 26.5457 28.307 26.7343 28.307H30.2781C30.3683 28.307 30.4531 28.2687 30.5187 28.2058C30.5816 28.1402 30.6171 28.0555 30.6171 27.9625V27.9625Z" fill="#7DA571" stroke="#7DA571" stroke-width="0.5"/>
</svg>
