<svg width="58" height="57" viewBox="0 0 58 57" fill="none" xmlns="http://www.w3.org/2000/svg">
<path d="M28.9999 0.715454C13.4815 0.715454 0.857666 13.3418 0.857666 28.8577C0.857666 44.3736 13.4815 57 28.9999 57C44.5183 57 57.1422 44.3736 57.1422 28.8577C57.1422 13.3393 44.5183 0.715454 28.9999 0.715454ZM28.9999 56.2107C13.9162 56.2107 1.64697 43.9414 1.64697 28.8577C1.64697 13.774 13.9162 1.50226 28.9999 1.50226C44.0836 1.50226 56.3529 13.774 56.3529 28.8552C56.3529 43.9389 44.0836 56.2107 28.9999 56.2107Z" fill="#7DA571"/>
<path d="M46.2583 45.542C41.6945 50.2621 35.5645 52.8615 28.9999 52.8615C15.7656 52.8615 4.99617 42.0921 4.99617 28.8553C4.99617 26.549 5.32355 24.2671 5.9661 22.0755C6.02718 21.8654 5.90747 21.648 5.6998 21.5869C5.48969 21.5234 5.27226 21.6455 5.20873 21.8532C4.5442 24.118 4.20459 26.4731 4.20459 28.855C4.20459 42.5265 15.3255 53.648 28.9976 53.648C35.7774 53.648 42.1074 50.963 46.8226 46.0865C46.9741 45.9301 46.9692 45.6809 46.8129 45.5294C46.6565 45.3804 46.4097 45.3853 46.2583 45.5417L46.2583 45.542Z" fill="#7DA571"/>
<path d="M29.0001 4.06482C23.7254 4.06482 18.6903 5.69928 14.4367 8.78982C14.2608 8.91686 14.2217 9.16606 14.3488 9.34197C14.4758 9.51787 14.7226 9.55696 14.9009 9.42992C19.0175 6.43707 23.8941 4.85639 29.0002 4.85639C42.2345 4.85639 53.0039 15.6258 53.0039 28.8601C53.0039 32.0313 52.3956 35.1096 51.196 38.0147C51.1129 38.215 51.2082 38.4447 51.411 38.5302C51.4599 38.5497 51.5112 38.5595 51.56 38.5595C51.7139 38.5595 51.863 38.4691 51.9241 38.3152C53.1627 35.315 53.7906 32.1365 53.7906 28.8604C53.7931 15.1864 42.6722 4.06488 29.0001 4.06488L29.0001 4.06482Z" fill="#7DA571"/>
<path d="M6.78675 18.7406C6.8405 18.7675 6.89914 18.7797 6.95532 18.7797C7.10435 18.7797 7.24362 18.6967 7.31202 18.555C8.53113 15.9921 10.1852 13.6809 12.2252 11.6876C12.3815 11.5362 12.384 11.287 12.2325 11.1306C12.081 10.9742 11.8318 10.9718 11.6755 11.1233C9.56948 13.1828 7.86172 15.5698 6.60108 18.2158C6.5058 18.4137 6.59131 18.6482 6.78676 18.741L6.78675 18.7406Z" fill="#7DA571"/>
<path d="M19.6889 44.2443C23.5784 46.6166 27.1479 47.8211 30.3045 47.8211C31.6726 47.8211 32.948 47.5938 34.0962 47.1419C34.9147 46.8194 35.5205 46.0913 35.6793 45.2411C35.8088 44.5473 35.6109 43.8999 35.137 43.4625C34.4846 42.8615 33.8128 42.2409 33.5416 41.9844C32.0708 40.5747 31.0032 39.1479 30.1847 37.4964C29.376 35.8643 28.863 34.6526 28.4379 33.6509C27.4484 31.3104 27.0771 30.4333 24.3261 27.7947C23.9352 27.4209 23.5004 27.0178 23.0019 26.5585C20.8691 24.6138 19.1198 23.7513 17.8421 24.0177C16.7988 24.2351 15.7483 25.3052 14.5267 26.5487L14.3582 26.7198C11.9541 29.1654 10.7131 31.3129 10.5664 33.2844C10.4052 35.4588 11.507 37.6454 13.9331 39.9734C15.3721 41.3514 17.307 42.7879 19.689 44.244L19.6889 44.2443ZM14.6854 27.5213C14.705 27.5922 14.7611 27.6483 14.8369 27.6483C14.9297 27.6483 15.0079 27.5726 15.0079 27.4773C15.0079 27.3967 14.9468 27.3381 14.8711 27.321C14.8882 27.3039 14.9029 27.2868 14.9175 27.2697L15.0885 27.0938C15.1398 27.04 15.1911 26.9887 15.2424 26.9374C15.2571 27.0156 15.3182 27.0791 15.4013 27.0791C15.4941 27.0791 15.5723 27.0034 15.5723 26.9081C15.5723 26.825 15.5088 26.7639 15.4281 26.7493C15.5576 26.6173 15.6847 26.4903 15.8093 26.3681C15.8239 26.4488 15.885 26.5123 15.9681 26.5123C16.0609 26.5123 16.1391 26.4365 16.1391 26.3413C16.1391 26.2582 16.0756 26.1996 15.9974 26.1825C16.1293 26.0554 16.2588 25.9333 16.3858 25.8184C16.4078 25.8868 16.4616 25.943 16.5373 25.943C16.6302 25.943 16.7083 25.8673 16.7083 25.772C16.7083 25.7036 16.6619 25.6547 16.6008 25.6279C16.7303 25.5155 16.8574 25.4104 16.982 25.3176C17.0137 25.3518 17.0553 25.3738 17.1041 25.3738C17.197 25.3738 17.2751 25.2981 17.2751 25.2028C17.2751 25.1759 17.258 25.1563 17.2458 25.1319C17.5097 24.9609 17.7613 24.8339 17.9958 24.785C18.0936 24.7654 18.1986 24.7532 18.3086 24.7532C18.8998 24.7532 19.9088 25.0562 21.4895 26.3095C21.487 26.3193 21.4773 26.3266 21.4773 26.3364C21.4773 26.4317 21.553 26.5074 21.6483 26.5074C21.6727 26.5074 21.6898 26.4903 21.7118 26.4805C21.8315 26.5783 21.961 26.698 22.088 26.8055C22.0685 26.8348 22.049 26.8641 22.049 26.9032C22.049 26.9985 22.1247 27.0742 22.22 27.0742C22.2664 27.0742 22.3104 27.0547 22.3397 27.0254C22.3837 27.0644 22.4228 27.0938 22.4643 27.1353C22.5449 27.2086 22.6133 27.2721 22.6891 27.343C22.6475 27.3747 22.6158 27.4162 22.6158 27.4749C22.6158 27.5677 22.6915 27.6459 22.7868 27.6459C22.8479 27.6459 22.8918 27.6068 22.9236 27.558C23.0482 27.6752 23.1728 27.79 23.2901 27.9C23.2314 27.9269 23.185 27.9757 23.185 28.0441C23.185 28.1394 23.2608 28.2152 23.356 28.2152C23.4293 28.2152 23.4782 28.1639 23.5026 28.1003C23.593 28.1858 23.6907 28.2762 23.7763 28.3593C23.8129 28.3935 23.8447 28.4253 23.8789 28.4595C23.808 28.4815 23.7518 28.5352 23.7518 28.6109C23.7518 28.7038 23.8276 28.782 23.9228 28.782C24.001 28.782 24.0572 28.7233 24.0768 28.6525C24.2087 28.782 24.3357 28.9066 24.4554 29.0263C24.3797 29.0434 24.3211 29.102 24.3211 29.1826C24.3211 29.2755 24.3968 29.3537 24.4921 29.3537C24.5703 29.3537 24.6289 29.2926 24.646 29.2193C24.7755 29.3512 24.8977 29.4783 25.0125 29.598C24.9441 29.62 24.8879 29.6737 24.8879 29.7519C24.8879 29.8447 24.9636 29.9205 25.0589 29.9205C25.1322 29.9205 25.1811 29.8692 25.2055 29.8056C25.3252 29.9376 25.4376 30.0622 25.5426 30.1819C25.4938 30.2112 25.4571 30.2552 25.4571 30.3187C25.4571 30.4115 25.5329 30.4897 25.6282 30.4897C25.6795 30.4897 25.721 30.4653 25.7528 30.4286C25.8603 30.5606 25.9629 30.6876 26.0557 30.8122C26.0435 30.8366 26.0239 30.8562 26.0239 30.8855C26.0239 30.9783 26.0997 31.0565 26.195 31.0565C26.2072 31.0565 26.2145 31.0468 26.2243 31.0443C26.6665 31.6673 26.9694 32.2585 27.2968 33.0037C27.221 33.0208 27.16 33.0794 27.16 33.16C27.16 33.2553 27.2357 33.3311 27.331 33.3311C27.3676 33.3311 27.397 33.3115 27.4238 33.292C27.5167 33.5094 27.6144 33.7391 27.7194 33.9858C27.8954 34.3987 28.0932 34.8653 28.3205 35.3784C28.3131 35.398 28.2985 35.4126 28.2985 35.4346C28.2985 35.5055 28.3473 35.5543 28.4084 35.5788C28.5965 36.0014 28.814 36.4705 29.0534 36.9738C29.046 36.9738 29.0411 36.9665 29.0363 36.9665C28.9434 36.9665 28.8652 37.0422 28.8652 37.1375C28.8652 37.2303 28.941 37.3085 29.0363 37.3085C29.0973 37.3085 29.1413 37.2694 29.1731 37.2206C29.2732 37.4282 29.3661 37.6237 29.476 37.8485C29.8229 38.5472 30.226 39.202 30.6682 39.8372C30.6145 39.8665 30.5705 39.9105 30.5705 39.9764C30.5705 40.0693 30.6462 40.1474 30.7415 40.1474C30.7831 40.1474 30.8197 40.1279 30.849 40.1035C30.9468 40.2403 31.0494 40.3771 31.1544 40.509C31.152 40.5212 31.1398 40.531 31.1398 40.5457C31.1398 40.6385 31.2155 40.7167 31.3108 40.7167C31.3157 40.7167 31.3181 40.7118 31.3206 40.7118C31.8214 41.3372 32.3638 41.9505 32.9941 42.5539C33.2628 42.8104 33.9274 43.4237 34.5772 44.0223C34.5919 44.0516 34.609 44.0711 34.6359 44.0882C34.9608 44.4229 34.9461 44.8578 34.9046 45.0948C34.7971 45.6714 34.3671 46.1869 33.8076 46.4068C33.5731 46.4996 33.3288 46.5778 33.082 46.6487C33.06 46.6389 33.0429 46.6218 33.016 46.6218C32.9574 46.6218 32.9134 46.6584 32.8817 46.7024C32.5983 46.7781 32.3051 46.8417 32.0071 46.8905C32.029 46.8612 32.0486 46.8319 32.0486 46.7928C32.0486 46.7 31.9729 46.6218 31.8776 46.6218C31.7847 46.6218 31.7066 46.6975 31.7066 46.7928C31.7066 46.8466 31.7359 46.8881 31.775 46.9198C31.2985 46.9858 30.8099 47.0298 30.3017 47.0298C29.7471 47.0298 29.1754 46.976 28.594 46.8979C28.6184 46.8685 28.638 46.8319 28.638 46.7904C28.638 46.6975 28.5622 46.6193 28.4669 46.6193C28.3717 46.6193 28.2959 46.6951 28.2959 46.7904C28.2959 46.8172 28.313 46.8368 28.3252 46.8588C28.0418 46.8148 27.7535 46.761 27.4628 46.6975C27.4311 46.6511 27.3895 46.6169 27.3309 46.6169C27.3016 46.6169 27.2771 46.634 27.2527 46.6487C26.7714 46.5387 26.2828 46.4068 25.7844 46.248C25.7868 46.2358 25.7966 46.2309 25.7966 46.2187C25.7966 46.1258 25.7208 46.0476 25.6256 46.0476C25.5571 46.0476 25.5083 46.0941 25.4814 46.1551C25.0221 45.9988 24.553 45.818 24.0791 45.6201C24.0644 45.5419 24.0033 45.4784 23.9202 45.4784C23.8885 45.4784 23.8641 45.4979 23.8372 45.5126C23.1727 45.2268 22.4959 44.9018 21.8069 44.5354C21.8094 44.5256 21.8167 44.5207 21.8167 44.5134C21.8167 44.4205 21.741 44.3423 21.6457 44.3423C21.5993 44.3423 21.5577 44.3619 21.526 44.3912C21.3403 44.2886 21.1497 44.1738 20.9641 44.0663C20.9934 44.0932 21.0325 44.1347 21.0789 44.1347C21.1717 44.1347 21.2499 43.9857 21.2499 43.9857H20.9103C20.9103 43.9857 20.9299 44.0516 20.9592 44.0834C20.6709 43.9172 20.385 43.7487 20.0943 43.5728C19.7034 43.3333 19.3296 43.0915 18.9631 42.8521C18.968 42.8374 18.9803 42.8252 18.9803 42.8105C18.9803 42.7153 18.9045 42.6395 18.8092 42.6371C18.7701 42.6371 18.7359 42.6566 18.7066 42.6786C18.5625 42.5833 18.4183 42.488 18.2766 42.3928C18.3524 42.3757 18.411 42.3195 18.411 42.2364C18.411 42.1436 18.3353 42.0678 18.24 42.0678C18.1471 42.0678 18.069 42.1436 18.069 42.2364C18.069 42.2437 18.0763 42.2486 18.0763 42.256C16.6495 41.2811 15.4377 40.321 14.4703 39.3926C14.4458 39.3682 14.4238 39.3462 14.4018 39.3218C14.3872 39.2925 14.3676 39.2754 14.3383 39.2583C14.16 39.0824 13.989 38.9089 13.8253 38.7354C13.8131 38.7183 13.8033 38.7086 13.7886 38.6963C12.9677 37.8193 12.3594 36.9715 11.9538 36.1409C11.9661 36.1433 11.9758 36.1555 11.9905 36.1555C12.0833 36.1555 12.1615 36.0798 12.1615 35.9869C12.1615 35.8917 12.0858 35.8159 11.9905 35.8159C11.9245 35.8159 11.8805 35.8575 11.8512 35.9112C11.6289 35.4177 11.4823 34.9291 11.4066 34.4453C11.4139 34.4453 11.4163 34.4526 11.4237 34.4526C11.5165 34.4526 11.5947 34.3769 11.5947 34.2816C11.5947 34.1888 11.519 34.113 11.4237 34.113C11.3992 34.113 11.3821 34.1301 11.3602 34.1375C11.3357 33.8663 11.326 33.5975 11.3455 33.3288C11.3455 33.3166 11.3504 33.2995 11.3528 33.2872C11.3748 33.2995 11.3968 33.3166 11.4237 33.3166C11.5165 33.3166 11.5947 33.2408 11.5947 33.1455C11.5947 33.0527 11.519 32.9745 11.4237 32.9745C11.4139 32.9745 11.4066 32.9843 11.3968 32.9867C11.4677 32.5006 11.6142 31.9973 11.8366 31.4769C11.8561 31.5502 11.9123 31.6112 11.9929 31.6112C12.0858 31.6112 12.1639 31.5355 12.1639 31.4402C12.1639 31.3449 12.0882 31.2692 11.9929 31.2692C11.9587 31.2692 11.9343 31.2863 11.9074 31.3058C12.1957 30.6755 12.6037 30.0183 13.1168 29.3343C13.1216 29.3343 13.1241 29.3392 13.129 29.3392C13.2218 29.3392 13.3 29.2634 13.3 29.1681C13.3 29.1486 13.2853 29.1339 13.2805 29.1168C13.3806 28.9873 13.4857 28.8579 13.5932 28.7259C13.6225 28.7504 13.6567 28.7699 13.6982 28.7699C13.7911 28.7699 13.8692 28.6942 13.8692 28.5989C13.8692 28.5476 13.8448 28.5036 13.8057 28.4743C13.9132 28.3497 14.0109 28.2275 14.1233 28.1005C14.1502 28.1567 14.1991 28.2031 14.265 28.2031C14.3579 28.2031 14.4361 28.1274 14.4361 28.0321C14.4361 27.9612 14.3872 27.9124 14.3237 27.8855C14.4458 27.7756 14.5631 27.6485 14.6852 27.5215L14.6854 27.5213Z" fill="#7DA571"/>
<path d="M8.5244 34.9946C8.98126 38.6861 12.2086 42.3166 18.3945 46.0911C23.1073 48.9667 27.175 50.4252 30.4779 50.4277C34.5238 50.4277 36.8249 48.2581 38.2034 46.6311C39.977 44.5348 38.5307 43.3109 36.7033 41.7595C35.2301 40.5086 33.3953 38.9523 32.0834 36.3113C31.2894 34.7086 30.7836 33.5164 30.3805 32.5587C29.2102 29.7882 28.7705 28.7523 24.5415 24.8946C22.3084 22.8594 20.393 21.87 18.6853 21.87C16.4572 21.87 14.8642 23.4923 13.176 25.2097L13.0099 25.3783C9.61884 28.828 8.15056 31.9723 8.52432 34.9944L8.5244 34.9946ZM13.5743 25.9307L13.7404 25.7621C15.3749 24.0959 16.7895 22.657 18.6853 22.657C20.1902 22.657 21.9322 23.578 24.0113 25.4763C28.1133 29.2168 28.5335 30.2111 29.6549 32.864C30.0629 33.8315 30.5735 35.036 31.3797 36.6582C32.7625 39.4482 34.7463 41.1291 36.1951 42.358C38.1814 44.0413 38.8068 44.6961 37.6048 46.1179C36.2195 47.7548 34.16 49.636 30.4829 49.636C27.3239 49.636 23.3979 48.2166 18.8097 45.4168C12.8436 41.7741 9.73582 38.3343 9.31053 34.8969C8.96605 32.1312 10.3611 29.1995 13.5738 25.9306L13.5743 25.9307Z" fill="#7DA571"/>
<path d="M34.3237 45.6566C34.3237 45.8838 33.9817 45.8838 33.9817 45.6566C33.9817 45.4294 34.3237 45.4294 34.3237 45.6566Z" fill="#7DA571"/>
<path d="M33.7546 46.2231C33.7546 46.4504 33.415 46.4504 33.415 46.2231C33.415 45.9984 33.7546 45.9984 33.7546 46.2231Z" fill="#7DA571"/>
<path d="M32.618 46.2231C32.618 46.1303 32.5423 46.0521 32.447 46.0521V46.3942C32.5423 46.3942 32.618 46.3184 32.618 46.2231Z" fill="#7DA571"/>
<path d="M33.1872 45.6566C33.1872 45.8838 32.8452 45.8838 32.8452 45.6566C32.8452 45.4294 33.1872 45.4294 33.1872 45.6566Z" fill="#7DA571"/>
<path d="M34.8904 45.0873C34.8904 45.3169 34.5483 45.3169 34.5483 45.0873C34.5483 44.8601 34.8904 44.8601 34.8904 45.0873Z" fill="#7DA571"/>
<path d="M33.7563 45.0873C33.7563 45.3169 33.4143 45.3169 33.4143 45.0873C33.4143 44.8601 33.7563 44.8601 33.7563 45.0873Z" fill="#7DA571"/>
<path d="M33.5856 44.1223C33.6784 44.1223 33.7541 44.0466 33.7541 43.9513H33.4121C33.4146 44.0466 33.4903 44.1223 33.5856 44.1223Z" fill="#7DA571"/>
<path d="M33.1872 44.5208C33.1872 44.748 32.8452 44.748 32.8452 44.5208C32.8452 44.2935 33.1872 44.2935 33.1872 44.5208Z" fill="#7DA571"/>
<path d="M34.3237 44.5208C34.3237 44.748 33.9817 44.748 33.9817 44.5208C33.9817 44.2935 34.3237 44.2935 34.3237 44.5208Z" fill="#7DA571"/>
<path d="M32.618 45.0898C32.618 44.9946 32.5423 44.9188 32.447 44.9188V45.2609C32.5423 45.2584 32.618 45.1827 32.618 45.0898Z" fill="#7DA571"/>
<path d="M32.6172 43.9541H32.447V44.1243C32.5418 44.1218 32.6172 44.0465 32.6172 43.9541Z" fill="#7DA571"/>
<path d="M33.5856 43.7803C33.4903 43.7803 33.4146 43.856 33.4146 43.9513H33.7566C33.7541 43.8585 33.6784 43.7803 33.5856 43.7803Z" fill="#7DA571"/>
<path d="M33.1872 43.3843C33.1872 43.609 32.8452 43.609 32.8452 43.3843C32.8452 43.1571 33.1872 43.1571 33.1872 43.3843Z" fill="#7DA571"/>
<path d="M32.45 43.7803V43.9504H32.6201C32.6177 43.8581 32.5423 43.7803 32.45 43.7803Z" fill="#7DA571"/>
<path d="M32.618 42.8152C32.618 42.7199 32.5423 42.6466 32.447 42.6466V42.9862C32.5423 42.9862 32.618 42.9105 32.618 42.8152Z" fill="#7DA571"/>
<path d="M32.4474 46.3945V46.0525C32.3545 46.0525 32.2764 46.1282 32.2764 46.2235C32.2788 46.3188 32.3545 46.3945 32.4474 46.3945Z" fill="#7DA571"/>
<path d="M32.0491 45.6566C32.0491 45.8838 31.7095 45.8838 31.7095 45.6566C31.7095 45.4294 32.0491 45.4294 32.0491 45.6566Z" fill="#7DA571"/>
<path d="M31.4822 46.2231C31.4822 46.4504 31.1426 46.4504 31.1426 46.2231C31.1426 45.9984 31.4822 45.9984 31.4822 46.2231Z" fill="#7DA571"/>
<path d="M30.3459 46.2231C30.3459 46.4504 30.0063 46.4504 30.0063 46.2231C30.0063 45.9984 30.3459 45.9984 30.3459 46.2231Z" fill="#7DA571"/>
<path d="M29.7793 46.7928C29.7793 47.02 29.4373 47.02 29.4373 46.7928C29.4373 46.5656 29.7793 46.5656 29.7793 46.7928Z" fill="#7DA571"/>
<path d="M30.915 46.7928C30.915 47.02 30.573 47.02 30.573 46.7928C30.573 46.5656 30.915 46.5656 30.915 46.7928Z" fill="#7DA571"/>
<path d="M29.7766 45.6566C29.7766 45.8838 29.437 45.8838 29.437 45.6566C29.437 45.4294 29.7766 45.4294 29.7766 45.6566Z" fill="#7DA571"/>
<path d="M30.915 45.6566C30.915 45.8838 30.573 45.8838 30.573 45.6566C30.573 45.4294 30.915 45.4294 30.915 45.6566Z" fill="#7DA571"/>
<path d="M29.2102 46.2231C29.2102 46.4504 28.8706 46.4504 28.8706 46.2231C28.8706 45.9984 29.2102 45.9984 29.2102 46.2231Z" fill="#7DA571"/>
<path d="M28.6433 45.6566C28.6433 45.8838 28.3013 45.8838 28.3013 45.6566C28.3013 45.4294 28.6433 45.4294 28.6433 45.6566Z" fill="#7DA571"/>
<path d="M32.4474 45.2587V44.9166C32.3545 44.9166 32.2764 44.9924 32.2764 45.0876C32.2764 45.1829 32.3545 45.2587 32.4474 45.2587Z" fill="#7DA571"/>
<path d="M31.4822 45.0873C31.4822 45.3169 31.1426 45.3169 31.1426 45.0873C31.1426 44.8601 31.4822 44.8601 31.4822 45.0873Z" fill="#7DA571"/>
<path d="M32.4465 44.1215V43.9513L32.2764 43.9537C32.2764 44.0461 32.3542 44.1215 32.4465 44.1215V44.1215Z" fill="#7DA571"/>
<path d="M31.3109 44.1223C31.4038 44.1223 31.4795 44.0466 31.4795 43.9513H31.1399C31.1423 44.0466 31.2181 44.1223 31.3109 44.1223Z" fill="#7DA571"/>
<path d="M30.9131 44.5208C30.9131 44.748 30.5735 44.748 30.5735 44.5208C30.5735 44.2935 30.9131 44.2935 30.9131 44.5208Z" fill="#7DA571"/>
<path d="M32.0491 44.5208C32.0491 44.748 31.7095 44.748 31.7095 44.5208C31.7095 44.2935 32.0491 44.2935 32.0491 44.5208Z" fill="#7DA571"/>
<path d="M30.346 45.0873C30.346 45.3169 30.0039 45.3169 30.0039 45.0873C30.0039 44.8601 30.346 44.8601 30.346 45.0873Z" fill="#7DA571"/>
<path d="M29.2102 45.0873C29.2102 45.3169 28.8682 45.3169 28.8682 45.0873C28.8682 44.8601 29.2102 44.8601 29.2102 45.0873Z" fill="#7DA571"/>
<path d="M30.1752 44.1223C30.268 44.1223 30.3462 44.0466 30.3462 43.9513H30.0042C30.0042 44.0466 30.0823 44.1223 30.1752 44.1223Z" fill="#7DA571"/>
<path d="M29.0387 44.1223C29.1315 44.1223 29.2097 44.0466 29.2097 43.9513H28.8701C28.8701 44.0466 28.9459 44.1223 29.0387 44.1223Z" fill="#7DA571"/>
<path d="M28.6409 44.5208C28.6409 44.748 28.3013 44.748 28.3013 44.5208C28.3013 44.2935 28.6409 44.2935 28.6409 44.5208Z" fill="#7DA571"/>
<path d="M29.7766 44.5208C29.7766 44.748 29.437 44.748 29.437 44.5208C29.437 44.2935 29.7766 44.2935 29.7766 44.5208Z" fill="#7DA571"/>
<path d="M32.4465 43.7803C32.3542 43.7803 32.2764 43.8556 32.2764 43.9504H32.4465V43.7803Z" fill="#7DA571"/>
<path d="M31.3109 43.7803C31.2156 43.7803 31.1399 43.856 31.1399 43.9513H31.4795C31.4819 43.8585 31.4062 43.7803 31.3109 43.7803Z" fill="#7DA571"/>
<path d="M30.9131 43.3843C30.9131 43.609 30.5735 43.609 30.5735 43.3843C30.5735 43.1571 30.9131 43.1571 30.9131 43.3843Z" fill="#7DA571"/>
<path d="M32.0491 43.3843C32.0491 43.609 31.7095 43.609 31.7095 43.3843C31.7095 43.1571 32.0491 43.1571 32.0491 43.3843Z" fill="#7DA571"/>
<path d="M30.1752 43.7803C30.0823 43.7803 30.0042 43.856 30.0042 43.9513H30.3462C30.3462 43.8585 30.2705 43.7803 30.1752 43.7803Z" fill="#7DA571"/>
<path d="M29.0387 43.7803C28.9459 43.7803 28.8677 43.856 28.8677 43.9513H29.2073C29.2097 43.8585 29.134 43.7803 29.0387 43.7803Z" fill="#7DA571"/>
<path d="M28.6409 43.3843C28.6409 43.609 28.3013 43.609 28.3013 43.3843C28.3013 43.1571 28.6409 43.1571 28.6409 43.3843Z" fill="#7DA571"/>
<path d="M29.7766 43.3843C29.7766 43.609 29.437 43.609 29.437 43.3843C29.437 43.1571 29.7766 43.1571 29.7766 43.3843Z" fill="#7DA571"/>
<path d="M32.4474 42.9864V42.6469C32.3545 42.6469 32.2764 42.7226 32.2764 42.8154C32.2764 42.9107 32.3545 42.9864 32.4474 42.9864Z" fill="#7DA571"/>
<path d="M32.0491 42.2484C32.0491 42.4756 31.7095 42.4756 31.7095 42.2484C31.7095 42.0212 32.0491 42.0212 32.0491 42.2484Z" fill="#7DA571"/>
<path d="M31.4822 42.8152C31.4822 43.0424 31.1426 43.0424 31.1426 42.8152C31.1426 42.5904 31.4822 42.5904 31.4822 42.8152Z" fill="#7DA571"/>
<path d="M30.3459 42.8152C30.3459 43.0424 30.0063 43.0424 30.0063 42.8152C30.0063 42.5904 30.3459 42.5904 30.3459 42.8152Z" fill="#7DA571"/>
<path d="M31.4822 41.6793C31.4822 41.9065 31.1426 41.9065 31.1426 41.6793C31.1426 41.4521 31.4822 41.4521 31.4822 41.6793Z" fill="#7DA571"/>
<path d="M30.3459 41.6793C30.3459 41.9065 30.0063 41.9065 30.0063 41.6793C30.0063 41.4521 30.3459 41.4521 30.3459 41.6793Z" fill="#7DA571"/>
<path d="M29.7766 42.2484C29.7766 42.4756 29.437 42.4756 29.437 42.2484C29.437 42.0212 29.7766 42.0212 29.7766 42.2484Z" fill="#7DA571"/>
<path d="M30.915 42.2484C30.915 42.4756 30.573 42.4756 30.573 42.2484C30.573 42.0212 30.915 42.0212 30.915 42.2484Z" fill="#7DA571"/>
<path d="M29.7766 41.1127C29.7766 41.3399 29.437 41.3399 29.437 41.1127C29.437 40.8855 29.7766 40.8855 29.7766 41.1127Z" fill="#7DA571"/>
<path d="M30.915 41.1127C30.915 41.3399 30.573 41.3399 30.573 41.1127C30.573 40.8855 30.915 40.8855 30.915 41.1127Z" fill="#7DA571"/>
<path d="M29.2102 42.8152C29.2102 43.0424 28.8706 43.0424 28.8706 42.8152C28.8706 42.5904 29.2102 42.5904 29.2102 42.8152Z" fill="#7DA571"/>
<path d="M29.2102 41.6793C29.2102 41.9065 28.8706 41.9065 28.8706 41.6793C28.8706 41.4521 29.2102 41.4521 29.2102 41.6793Z" fill="#7DA571"/>
<path d="M28.6433 42.2484C28.6433 42.4756 28.3013 42.4756 28.3013 42.2484C28.3013 42.0212 28.6433 42.0212 28.6433 42.2484Z" fill="#7DA571"/>
<path d="M28.6433 41.1127C28.6433 41.3399 28.3013 41.3399 28.3013 41.1127C28.3013 40.8855 28.6433 40.8855 28.6433 41.1127Z" fill="#7DA571"/>
<path d="M30.346 40.543C30.346 40.7702 30.0039 40.7702 30.0039 40.543C30.0039 40.3158 30.346 40.3158 30.346 40.543Z" fill="#7DA571"/>
<path d="M29.2102 40.543C29.2102 40.7702 28.8682 40.7702 28.8682 40.543C28.8682 40.3158 29.2102 40.3158 29.2102 40.543Z" fill="#7DA571"/>
<path d="M30.3459 39.4071C30.3459 39.6343 30.0063 39.6343 30.0063 39.4071C30.0063 39.1799 30.3459 39.1799 30.3459 39.4071Z" fill="#7DA571"/>
<path d="M29.2102 39.4071C29.2102 39.6343 28.8706 39.6343 28.8706 39.4071C28.8706 39.1799 29.2102 39.1799 29.2102 39.4071Z" fill="#7DA571"/>
<path d="M28.6409 39.9762C28.6409 40.2034 28.3013 40.2034 28.3013 39.9762C28.3013 39.749 28.6409 39.749 28.6409 39.9762Z" fill="#7DA571"/>
<path d="M29.7766 39.9762C29.7766 40.2034 29.437 40.2034 29.437 39.9762C29.437 39.749 29.7766 39.749 29.7766 39.9762Z" fill="#7DA571"/>
<path d="M28.6409 38.8406C28.6409 39.0678 28.3013 39.0678 28.3013 38.8406C28.3013 38.6134 28.6409 38.6134 28.6409 38.8406Z" fill="#7DA571"/>
<path d="M29.7766 38.8406C29.7766 39.0678 29.437 39.0678 29.437 38.8406C29.437 38.6134 29.7766 38.6134 29.7766 38.8406Z" fill="#7DA571"/>
<path d="M29.2102 38.2712C29.2102 38.4985 28.8706 38.4985 28.8706 38.2712C28.8706 38.0465 29.2102 38.0465 29.2102 38.2712Z" fill="#7DA571"/>
<path d="M28.6433 37.7041C28.6433 37.9289 28.3013 37.9289 28.3013 37.7041C28.3013 37.4769 28.6433 37.4769 28.6433 37.7041Z" fill="#7DA571"/>
<path d="M28.6433 36.5682C28.6433 36.7955 28.3013 36.7955 28.3013 36.5682C28.3013 36.341 28.6433 36.341 28.6433 36.5682Z" fill="#7DA571"/>
<path d="M27.9029 46.3945C27.9958 46.3921 28.0715 46.3188 28.0715 46.2235C28.0715 46.1307 27.9958 46.0549 27.9029 46.0525C27.8101 46.0525 27.7319 46.1282 27.7319 46.2235C27.7344 46.3188 27.8101 46.3945 27.9029 46.3945Z" fill="#7DA571"/>
<path d="M27.5044 45.6566C27.5044 45.8838 27.1648 45.8838 27.1648 45.6566C27.1648 45.4294 27.5044 45.4294 27.5044 45.6566Z" fill="#7DA571"/>
<path d="M26.9377 46.2231C26.9377 46.4504 26.5981 46.4504 26.5981 46.2231C26.5981 45.9984 26.9377 45.9984 26.9377 46.2231Z" fill="#7DA571"/>
<path d="M25.2349 45.6566C25.2349 45.8838 24.8928 45.8838 24.8928 45.6566C24.8928 45.4294 25.2349 45.4294 25.2349 45.6566Z" fill="#7DA571"/>
<path d="M26.3713 45.6566C26.3713 45.8838 26.0293 45.8838 26.0293 45.6566C26.0293 45.4294 26.3713 45.4294 26.3713 45.6566Z" fill="#7DA571"/>
<path d="M27.9029 45.2588C27.9958 45.2588 28.0715 45.1831 28.0715 45.0902C28.0715 44.9949 27.9958 44.9192 27.9029 44.9192C27.8101 44.9216 27.7319 44.9949 27.7319 45.0902C27.7344 45.1831 27.8101 45.2588 27.9029 45.2588Z" fill="#7DA571"/>
<path d="M26.9377 45.0873C26.9377 45.3169 26.5957 45.3169 26.5957 45.0873C26.5957 44.8601 26.9377 44.8601 26.9377 45.0873Z" fill="#7DA571"/>
<path d="M27.9029 44.1223C27.9958 44.1199 28.0715 44.0466 28.0715 43.9513H27.7319C27.7344 44.0466 27.8101 44.1223 27.9029 44.1223Z" fill="#7DA571"/>
<path d="M26.7672 44.1223C26.8601 44.1223 26.9382 44.0466 26.9382 43.9513H26.5986C26.5986 44.0466 26.6744 44.1223 26.7672 44.1223Z" fill="#7DA571"/>
<path d="M26.3713 44.5208C26.3713 44.748 26.0293 44.748 26.0293 44.5208C26.0293 44.2935 26.3713 44.2935 26.3713 44.5208Z" fill="#7DA571"/>
<path d="M27.5044 44.5208C27.5044 44.748 27.1648 44.748 27.1648 44.5208C27.1648 44.2935 27.5044 44.2935 27.5044 44.5208Z" fill="#7DA571"/>
<path d="M25.802 45.0873C25.802 45.3169 25.46 45.3169 25.46 45.0873C25.46 44.8601 25.802 44.8601 25.802 45.0873Z" fill="#7DA571"/>
<path d="M24.6655 45.0873C24.6655 45.3169 24.3259 45.3169 24.3259 45.0873C24.3259 44.8601 24.6655 44.8601 24.6655 45.0873Z" fill="#7DA571"/>
<path d="M25.6307 44.1223C25.7236 44.1223 25.8017 44.0466 25.8017 43.9513H25.4622C25.4622 44.0466 25.5379 44.1223 25.6307 44.1223Z" fill="#7DA571"/>
<path d="M24.4975 44.1223C24.5903 44.1223 24.6685 44.0466 24.6685 43.9513H24.3289C24.3265 44.0466 24.4022 44.1223 24.4975 44.1223Z" fill="#7DA571"/>
<path d="M24.0964 44.5208C24.0964 44.748 23.7568 44.748 23.7568 44.5208C23.7568 44.2935 24.0964 44.2935 24.0964 44.5208Z" fill="#7DA571"/>
<path d="M25.2349 44.5208C25.2349 44.748 24.8928 44.748 24.8928 44.5208C24.8928 44.2935 25.2349 44.2935 25.2349 44.5208Z" fill="#7DA571"/>
<path d="M27.9054 43.9515H28.074C28.074 43.8587 27.9982 43.783 27.9054 43.7805C27.8126 43.7805 27.7344 43.8563 27.7344 43.9515H27.9054Z" fill="#7DA571"/>
<path d="M26.7672 43.7803C26.6744 43.7803 26.5962 43.856 26.5962 43.9513H26.9358C26.9382 43.8585 26.8625 43.7803 26.7672 43.7803Z" fill="#7DA571"/>
<path d="M26.3713 43.3843C26.3713 43.609 26.0293 43.609 26.0293 43.3843C26.0293 43.1571 26.3713 43.1571 26.3713 43.3843Z" fill="#7DA571"/>
<path d="M27.5044 43.3843C27.5044 43.609 27.1648 43.609 27.1648 43.3843C27.1648 43.1571 27.5044 43.1571 27.5044 43.3843Z" fill="#7DA571"/>
<path d="M25.6307 43.7803C25.5379 43.7803 25.4597 43.856 25.4597 43.9513H25.7993C25.8018 43.8585 25.726 43.7803 25.6307 43.7803Z" fill="#7DA571"/>
<path d="M24.4974 43.7803C24.4046 43.7803 24.3264 43.856 24.3264 43.9513H24.666C24.666 43.8585 24.5903 43.7803 24.4974 43.7803Z" fill="#7DA571"/>
<path d="M24.0964 43.3843C24.0964 43.609 23.7568 43.609 23.7568 43.3843C23.7568 43.1571 24.0964 43.1571 24.0964 43.3843Z" fill="#7DA571"/>
<path d="M25.2349 43.3843C25.2349 43.609 24.8928 43.609 24.8928 43.3843C24.8928 43.1571 25.2349 43.1571 25.2349 43.3843Z" fill="#7DA571"/>
<path d="M27.9029 42.9864C27.9958 42.9864 28.0715 42.9107 28.0715 42.8154C28.0715 42.7201 27.9958 42.6469 27.9029 42.6469C27.8101 42.6469 27.7319 42.7226 27.7319 42.8154C27.7344 42.9107 27.8101 42.9864 27.9029 42.9864Z" fill="#7DA571"/>
<path d="M27.9029 41.8501C27.9958 41.8477 28.0715 41.7744 28.0715 41.6791C28.0715 41.5862 27.9958 41.5105 27.9029 41.5081C27.8101 41.5081 27.7319 41.5838 27.7319 41.6791C27.7344 41.7744 27.8101 41.8477 27.9029 41.8501Z" fill="#7DA571"/>
<path d="M27.5044 42.2484C27.5044 42.4756 27.1648 42.4756 27.1648 42.2484C27.1648 42.0212 27.5044 42.0212 27.5044 42.2484Z" fill="#7DA571"/>
<path d="M27.5044 41.1127C27.5044 41.3399 27.1648 41.3399 27.1648 41.1127C27.1648 40.8855 27.5044 40.8855 27.5044 41.1127Z" fill="#7DA571"/>
<path d="M26.9377 42.8152C26.9377 43.0424 26.5981 43.0424 26.5981 42.8152C26.5981 42.5904 26.9377 42.5904 26.9377 42.8152Z" fill="#7DA571"/>
<path d="M25.802 42.8152C25.802 43.0424 25.4624 43.0424 25.4624 42.8152C25.4624 42.5904 25.802 42.5904 25.802 42.8152Z" fill="#7DA571"/>
<path d="M26.9377 41.6793C26.9377 41.9065 26.5981 41.9065 26.5981 41.6793C26.5981 41.4521 26.9377 41.4521 26.9377 41.6793Z" fill="#7DA571"/>
<path d="M25.802 41.6793C25.802 41.9065 25.4624 41.9065 25.4624 41.6793C25.4624 41.4521 25.802 41.4521 25.802 41.6793Z" fill="#7DA571"/>
<path d="M25.2349 42.2484C25.2349 42.4756 24.8928 42.4756 24.8928 42.2484C24.8928 42.0212 25.2349 42.0212 25.2349 42.2484Z" fill="#7DA571"/>
<path d="M26.3713 42.2484C26.3713 42.4756 26.0293 42.4756 26.0293 42.2484C26.0293 42.0212 26.3713 42.0212 26.3713 42.2484Z" fill="#7DA571"/>
<path d="M25.2349 41.1127C25.2349 41.3399 24.8928 41.3399 24.8928 41.1127C24.8928 40.8855 25.2349 40.8855 25.2349 41.1127Z" fill="#7DA571"/>
<path d="M26.3713 41.1127C26.3713 41.3399 26.0293 41.3399 26.0293 41.1127C26.0293 40.8855 26.3713 40.8855 26.3713 41.1127Z" fill="#7DA571"/>
<path d="M24.6655 42.8152C24.6655 43.0424 24.3259 43.0424 24.3259 42.8152C24.3259 42.5904 24.6655 42.5904 24.6655 42.8152Z" fill="#7DA571"/>
<path d="M24.6655 41.6793C24.6655 41.9065 24.3259 41.9065 24.3259 41.6793C24.3259 41.4521 24.6655 41.4521 24.6655 41.6793Z" fill="#7DA571"/>
<path d="M24.0991 42.2484C24.0991 42.4756 23.7571 42.4756 23.7571 42.2484C23.7571 42.0212 24.0991 42.0212 24.0991 42.2484Z" fill="#7DA571"/>
<path d="M24.0991 41.1127C24.0991 41.3399 23.7571 41.3399 23.7571 41.1127C23.7571 40.8855 24.0991 40.8855 24.0991 41.1127Z" fill="#7DA571"/>
<path d="M27.9029 40.7142C27.9958 40.7142 28.0715 40.6385 28.0715 40.5432C28.0715 40.4479 27.9958 40.3746 27.9029 40.3722C27.8101 40.3746 27.7319 40.4479 27.7319 40.5432C27.7344 40.6385 27.8101 40.7142 27.9029 40.7142Z" fill="#7DA571"/>
<path d="M26.9377 40.543C26.9377 40.7702 26.5957 40.7702 26.5957 40.543C26.5957 40.3158 26.9377 40.3158 26.9377 40.543Z" fill="#7DA571"/>
<path d="M27.9029 39.5785C27.9958 39.576 28.0715 39.5028 28.0715 39.4075C28.0715 39.3146 27.9958 39.2389 27.9029 39.2365C27.8101 39.2365 27.7319 39.3122 27.7319 39.4075C27.7344 39.5027 27.8101 39.5785 27.9029 39.5785Z" fill="#7DA571"/>
<path d="M26.9377 39.4071C26.9377 39.6343 26.5981 39.6343 26.5981 39.4071C26.5981 39.1799 26.9377 39.1799 26.9377 39.4071Z" fill="#7DA571"/>
<path d="M26.3713 39.9762C26.3713 40.2034 26.0293 40.2034 26.0293 39.9762C26.0293 39.749 26.3713 39.749 26.3713 39.9762Z" fill="#7DA571"/>
<path d="M27.5044 39.9762C27.5044 40.2034 27.1648 40.2034 27.1648 39.9762C27.1648 39.749 27.5044 39.749 27.5044 39.9762Z" fill="#7DA571"/>
<path d="M25.802 40.543C25.802 40.7702 25.46 40.7702 25.46 40.543C25.46 40.3158 25.802 40.3158 25.802 40.543Z" fill="#7DA571"/>
<path d="M24.6655 40.543C24.6655 40.7702 24.3259 40.7702 24.3259 40.543C24.3259 40.3158 24.6655 40.3158 24.6655 40.543Z" fill="#7DA571"/>
<path d="M25.802 39.4071C25.802 39.6343 25.4624 39.6343 25.4624 39.4071C25.4624 39.1799 25.802 39.1799 25.802 39.4071Z" fill="#7DA571"/>
<path d="M24.6655 39.4071C24.6655 39.6343 24.3259 39.6343 24.3259 39.4071C24.3259 39.1799 24.6655 39.1799 24.6655 39.4071Z" fill="#7DA571"/>
<path d="M24.0964 39.9762C24.0964 40.2034 23.7568 40.2034 23.7568 39.9762C23.7568 39.749 24.0964 39.749 24.0964 39.9762Z" fill="#7DA571"/>
<path d="M25.2349 39.9762C25.2349 40.2034 24.8928 40.2034 24.8928 39.9762C24.8928 39.749 25.2349 39.749 25.2349 39.9762Z" fill="#7DA571"/>
<path d="M26.3713 38.8406C26.3713 39.0678 26.0293 39.0678 26.0293 38.8406C26.0293 38.6134 26.3713 38.6134 26.3713 38.8406Z" fill="#7DA571"/>
<path d="M27.5044 38.8406C27.5044 39.0678 27.1648 39.0678 27.1648 38.8406C27.1648 38.6134 27.5044 38.6134 27.5044 38.8406Z" fill="#7DA571"/>
<path d="M24.0964 38.8406C24.0964 39.0678 23.7568 39.0678 23.7568 38.8406C23.7568 38.6134 24.0964 38.6134 24.0964 38.8406Z" fill="#7DA571"/>
<path d="M25.2349 38.8406C25.2349 39.0678 24.8928 39.0678 24.8928 38.8406C24.8928 38.6134 25.2349 38.6134 25.2349 38.8406Z" fill="#7DA571"/>
<path d="M27.9029 38.442C27.9958 38.442 28.0715 38.3663 28.0715 38.2734C28.0715 38.1782 27.9958 38.1049 27.9029 38.1024C27.8101 38.1024 27.7319 38.1781 27.7319 38.2734C27.7344 38.3663 27.8101 38.442 27.9029 38.442Z" fill="#7DA571"/>
<path d="M27.9029 37.3062C27.9958 37.3037 28.0715 37.2304 28.0715 37.1351C28.0715 37.0423 27.9958 36.9666 27.9029 36.9641C27.8101 36.9641 27.7319 37.0398 27.7319 37.1351C27.7344 37.2304 27.8101 37.3062 27.9029 37.3062Z" fill="#7DA571"/>
<path d="M27.5044 37.7041C27.5044 37.9289 27.1648 37.9289 27.1648 37.7041C27.1648 37.4769 27.5044 37.4769 27.5044 37.7041Z" fill="#7DA571"/>
<path d="M27.5044 36.5682C27.5044 36.7955 27.1648 36.7955 27.1648 36.5682C27.1648 36.341 27.5044 36.341 27.5044 36.5682Z" fill="#7DA571"/>
<path d="M26.9377 38.2712C26.9377 38.4985 26.5981 38.4985 26.5981 38.2712C26.5981 38.0465 26.9377 38.0465 26.9377 38.2712Z" fill="#7DA571"/>
<path d="M25.802 38.2712C25.802 38.4985 25.4624 38.4985 25.4624 38.2712C25.4624 38.0465 25.802 38.0465 25.802 38.2712Z" fill="#7DA571"/>
<path d="M26.9377 37.135C26.9377 37.3622 26.5981 37.3622 26.5981 37.135C26.5981 36.9078 26.9377 36.9078 26.9377 37.135Z" fill="#7DA571"/>
<path d="M25.802 37.135C25.802 37.3622 25.4624 37.3622 25.4624 37.135C25.4624 36.9078 25.802 36.9078 25.802 37.135Z" fill="#7DA571"/>
<path d="M25.2349 37.7041C25.2349 37.9289 24.8928 37.9289 24.8928 37.7041C24.8928 37.4769 25.2349 37.4769 25.2349 37.7041Z" fill="#7DA571"/>
<path d="M26.3713 37.7041C26.3713 37.9289 26.0293 37.9289 26.0293 37.7041C26.0293 37.4769 26.3713 37.4769 26.3713 37.7041Z" fill="#7DA571"/>
<path d="M25.2349 36.5682C25.2349 36.7955 24.8928 36.7955 24.8928 36.5682C24.8928 36.341 25.2349 36.341 25.2349 36.5682Z" fill="#7DA571"/>
<path d="M26.3713 36.5682C26.3713 36.7955 26.0293 36.7955 26.0293 36.5682C26.0293 36.341 26.3713 36.341 26.3713 36.5682Z" fill="#7DA571"/>
<path d="M24.6655 38.2712C24.6655 38.4985 24.3259 38.4985 24.3259 38.2712C24.3259 38.0465 24.6655 38.0465 24.6655 38.2712Z" fill="#7DA571"/>
<path d="M24.6655 37.135C24.6655 37.3622 24.3259 37.3622 24.3259 37.135C24.3259 36.9078 24.6655 36.9078 24.6655 37.135Z" fill="#7DA571"/>
<path d="M24.0991 37.7041C24.0991 37.9289 23.7571 37.9289 23.7571 37.7041C23.7571 37.4769 24.0991 37.4769 24.0991 37.7041Z" fill="#7DA571"/>
<path d="M24.0991 36.5682C24.0991 36.7955 23.7571 36.7955 23.7571 36.5682C23.7571 36.341 24.0991 36.341 24.0991 36.5682Z" fill="#7DA571"/>
<path d="M27.9029 36.1699C27.9958 36.1699 28.0715 36.0942 28.0715 36.0013C28.0715 35.9061 27.9958 35.8303 27.9029 35.8303C27.8101 35.8303 27.7319 35.9061 27.7319 36.0013C27.7344 36.0942 27.8101 36.1699 27.9029 36.1699Z" fill="#7DA571"/>
<path d="M26.9377 35.9991C26.9377 36.2263 26.5981 36.2263 26.5981 35.9991C26.5981 35.7719 26.9377 35.7719 26.9377 35.9991Z" fill="#7DA571"/>
<path d="M27.9029 35.034C27.9958 35.034 28.0715 34.9583 28.0715 34.863C28.0715 34.7702 27.9958 34.6945 27.9029 34.692C27.8101 34.692 27.7319 34.7677 27.7319 34.863C27.7344 34.9583 27.8101 35.034 27.9029 35.034Z" fill="#7DA571"/>
<path d="M26.9377 34.8627C26.9377 35.0899 26.5981 35.0899 26.5981 34.8627C26.5981 34.6355 26.9377 34.6355 26.9377 34.8627Z" fill="#7DA571"/>
<path d="M26.3713 35.4325C26.3713 35.6573 26.0293 35.6573 26.0293 35.4325C26.0293 35.2053 26.3713 35.2053 26.3713 35.4325Z" fill="#7DA571"/>
<path d="M27.5044 35.4325C27.5044 35.6573 27.1648 35.6573 27.1648 35.4325C27.1648 35.2053 27.5044 35.2053 27.5044 35.4325Z" fill="#7DA571"/>
<path d="M25.802 35.9991C25.802 36.2263 25.4624 36.2263 25.4624 35.9991C25.4624 35.7719 25.802 35.7719 25.802 35.9991Z" fill="#7DA571"/>
<path d="M24.6655 35.9991C24.6655 36.2263 24.3259 36.2263 24.3259 35.9991C24.3259 35.7719 24.6655 35.7719 24.6655 35.9991Z" fill="#7DA571"/>
<path d="M25.802 34.8627C25.802 35.0899 25.4624 35.0899 25.4624 34.8627C25.4624 34.6355 25.802 34.6355 25.802 34.8627Z" fill="#7DA571"/>
<path d="M24.6655 34.8627C24.6655 35.0899 24.3259 35.0899 24.3259 34.8627C24.3259 34.6355 24.6655 34.6355 24.6655 34.8627Z" fill="#7DA571"/>
<path d="M24.0964 35.4325C24.0964 35.6573 23.7568 35.6573 23.7568 35.4325C23.7568 35.2053 24.0964 35.2053 24.0964 35.4325Z" fill="#7DA571"/>
<path d="M25.2349 35.4325C25.2349 35.6573 24.8928 35.6573 24.8928 35.4325C24.8928 35.2053 25.2349 35.2053 25.2349 35.4325Z" fill="#7DA571"/>
<path d="M26.3713 34.296C26.3713 34.5232 26.0293 34.5232 26.0293 34.296C26.0293 34.0688 26.3713 34.0688 26.3713 34.296Z" fill="#7DA571"/>
<path d="M27.5044 34.296C27.5044 34.5232 27.1648 34.5232 27.1648 34.296C27.1648 34.0688 27.5044 34.0688 27.5044 34.296Z" fill="#7DA571"/>
<path d="M24.0964 34.296C24.0964 34.5232 23.7568 34.5232 23.7568 34.296C23.7568 34.0688 24.0964 34.0688 24.0964 34.296Z" fill="#7DA571"/>
<path d="M25.2349 34.296C25.2349 34.5232 24.8928 34.5232 24.8928 34.296C24.8928 34.0688 25.2349 34.0688 25.2349 34.296Z" fill="#7DA571"/>
<path d="M26.9377 33.7269C26.9377 33.9541 26.5981 33.9541 26.5981 33.7269C26.5981 33.4997 26.9377 33.4997 26.9377 33.7269Z" fill="#7DA571"/>
<path d="M25.802 33.7269C25.802 33.9541 25.4624 33.9541 25.4624 33.7269C25.4624 33.4997 25.802 33.4997 25.802 33.7269Z" fill="#7DA571"/>
<path d="M26.9377 32.5911C26.9377 32.8183 26.5981 32.8183 26.5981 32.5911C26.5981 32.3663 26.9377 32.3663 26.9377 32.5911Z" fill="#7DA571"/>
<path d="M25.802 32.5911C25.802 32.8183 25.4624 32.8183 25.4624 32.5911C25.4624 32.3663 25.802 32.3663 25.802 32.5911Z" fill="#7DA571"/>
<path d="M25.2349 33.1603C25.2349 33.3875 24.8928 33.3875 24.8928 33.1603C24.8928 32.9331 25.2349 32.9331 25.2349 33.1603Z" fill="#7DA571"/>
<path d="M26.3713 33.1603C26.3713 33.3875 26.0293 33.3875 26.0293 33.1603C26.0293 32.9331 26.3713 32.9331 26.3713 33.1603Z" fill="#7DA571"/>
<path d="M25.2349 32.0238C25.2349 32.251 24.8928 32.251 24.8928 32.0238C24.8928 31.7966 25.2349 31.7966 25.2349 32.0238Z" fill="#7DA571"/>
<path d="M26.3713 32.0238C26.3713 32.251 26.0293 32.251 26.0293 32.0238C26.0293 31.7966 26.3713 31.7966 26.3713 32.0238Z" fill="#7DA571"/>
<path d="M24.6655 33.7269C24.6655 33.9541 24.3259 33.9541 24.3259 33.7269C24.3259 33.4997 24.6655 33.4997 24.6655 33.7269Z" fill="#7DA571"/>
<path d="M24.6655 32.5911C24.6655 32.8183 24.3259 32.8183 24.3259 32.5911C24.3259 32.3663 24.6655 32.3663 24.6655 32.5911Z" fill="#7DA571"/>
<path d="M24.0991 33.1603C24.0991 33.3875 23.7571 33.3875 23.7571 33.1603C23.7571 32.9331 24.0991 32.9331 24.0991 33.1603Z" fill="#7DA571"/>
<path d="M24.0991 32.0238C24.0991 32.251 23.7571 32.251 23.7571 32.0238C23.7571 31.7966 24.0991 31.7966 24.0991 32.0238Z" fill="#7DA571"/>
<path d="M25.802 31.4546C25.802 31.6842 25.46 31.6842 25.46 31.4546C25.46 31.2274 25.802 31.2274 25.802 31.4546Z" fill="#7DA571"/>
<path d="M24.6655 31.4546C24.6655 31.6842 24.3259 31.6842 24.3259 31.4546C24.3259 31.2274 24.6655 31.2274 24.6655 31.4546Z" fill="#7DA571"/>
<path d="M24.6655 30.3188C24.6655 30.546 24.3259 30.546 24.3259 30.3188C24.3259 30.0916 24.6655 30.0916 24.6655 30.3188Z" fill="#7DA571"/>
<path d="M24.0964 30.8881C24.0964 31.1153 23.7568 31.1153 23.7568 30.8881C23.7568 30.6608 24.0964 30.6608 24.0964 30.8881Z" fill="#7DA571"/>
<path d="M25.2349 30.8881C25.2349 31.1153 24.8928 31.1153 24.8928 30.8881C24.8928 30.6608 25.2349 30.6608 25.2349 30.8881Z" fill="#7DA571"/>
<path d="M24.0964 29.7522C24.0964 29.977 23.7568 29.977 23.7568 29.7522C23.7568 29.525 24.0964 29.525 24.0964 29.7522Z" fill="#7DA571"/>
<path d="M22.9631 44.5208C22.9631 44.748 22.6211 44.748 22.6211 44.5208C22.6211 44.2935 22.9631 44.2935 22.9631 44.5208Z" fill="#7DA571"/>
<path d="M22.2225 44.1223C22.3154 44.1223 22.3936 44.0466 22.3936 43.9513H22.0515C22.054 44.0466 22.1297 44.1223 22.2225 44.1223Z" fill="#7DA571"/>
<path d="M22.2225 43.7803C22.1297 43.7803 22.0515 43.856 22.0515 43.9513H22.3936C22.3936 43.8585 22.3178 43.7803 22.2225 43.7803Z" fill="#7DA571"/>
<path d="M21.8242 43.3843C21.8242 43.609 21.4846 43.609 21.4846 43.3843C21.4846 43.1571 21.8242 43.1571 21.8242 43.3843Z" fill="#7DA571"/>
<path d="M22.9631 43.3843C22.9631 43.609 22.6211 43.609 22.6211 43.3843C22.6211 43.1571 22.9631 43.1571 22.9631 43.3843Z" fill="#7DA571"/>
<path d="M21.0868 43.7803C20.994 43.7803 20.9158 43.856 20.9158 43.9513H21.2554C21.2578 43.8585 21.1821 43.7803 21.0868 43.7803Z" fill="#7DA571"/>
<path d="M20.6909 43.3843C20.6909 43.609 20.3489 43.609 20.3489 43.3843C20.3489 43.1571 20.6909 43.1571 20.6909 43.3843Z" fill="#7DA571"/>
<path d="M22.9631 42.2484C22.9631 42.4756 22.6211 42.4756 22.6211 42.2484C22.6211 42.0212 22.9631 42.0212 22.9631 42.2484Z" fill="#7DA571"/>
<path d="M22.9631 41.1127C22.9631 41.3399 22.6211 41.3399 22.6211 41.1127C22.6211 40.8855 22.9631 40.8855 22.9631 41.1127Z" fill="#7DA571"/>
<path d="M22.394 42.8152C22.394 43.0424 22.0544 43.0424 22.0544 42.8152C22.0544 42.5904 22.394 42.5904 22.394 42.8152Z" fill="#7DA571"/>
<path d="M21.2576 42.8152C21.2576 43.0424 20.918 43.0424 20.918 42.8152C20.918 42.5904 21.2576 42.5904 21.2576 42.8152Z" fill="#7DA571"/>
<path d="M22.394 41.6793C22.394 41.9065 22.0544 41.9065 22.0544 41.6793C22.0544 41.4521 22.394 41.4521 22.394 41.6793Z" fill="#7DA571"/>
<path d="M21.2576 41.6793C21.2576 41.9065 20.918 41.9065 20.918 41.6793C20.918 41.4521 21.2576 41.4521 21.2576 41.6793Z" fill="#7DA571"/>
<path d="M20.6909 42.2484C20.6909 42.4756 20.3489 42.4756 20.3489 42.2484C20.3489 42.0212 20.6909 42.0212 20.6909 42.2484Z" fill="#7DA571"/>
<path d="M21.8242 42.2484C21.8242 42.4756 21.4846 42.4756 21.4846 42.2484C21.4846 42.0212 21.8242 42.0212 21.8242 42.2484Z" fill="#7DA571"/>
<path d="M20.6909 41.1127C20.6909 41.3399 20.3489 41.3399 20.3489 41.1127C20.3489 40.8855 20.6909 40.8855 20.6909 41.1127Z" fill="#7DA571"/>
<path d="M21.8242 41.1127C21.8242 41.3399 21.4846 41.3399 21.4846 41.1127C21.4846 40.8855 21.8242 40.8855 21.8242 41.1127Z" fill="#7DA571"/>
<path d="M20.1218 42.8152C20.1218 43.0424 19.7822 43.0424 19.7822 42.8152C19.7822 42.5904 20.1218 42.5904 20.1218 42.8152Z" fill="#7DA571"/>
<path d="M20.1218 41.6793C20.1218 41.9065 19.7822 41.9065 19.7822 41.6793C19.7822 41.4521 20.1218 41.4521 20.1218 41.6793Z" fill="#7DA571"/>
<path d="M18.8146 41.5079C18.7193 41.5079 18.6436 41.5837 18.6436 41.679C18.6436 41.7718 18.7193 41.8475 18.8146 41.85C18.9074 41.8475 18.9856 41.7742 18.9856 41.679C18.9856 41.5861 18.9099 41.5104 18.8146 41.5079Z" fill="#7DA571"/>
<path d="M19.5527 42.2484C19.5527 42.4756 19.2131 42.4756 19.2131 42.2484C19.2131 42.0212 19.5527 42.0212 19.5527 42.2484Z" fill="#7DA571"/>
<path d="M19.5527 41.1127C19.5527 41.3399 19.2131 41.3399 19.2131 41.1127C19.2131 40.8855 19.5527 40.8855 19.5527 41.1127Z" fill="#7DA571"/>
<path d="M22.394 40.543C22.394 40.7702 22.052 40.7702 22.052 40.543C22.052 40.3158 22.394 40.3158 22.394 40.543Z" fill="#7DA571"/>
<path d="M22.394 39.4071C22.394 39.6343 22.0544 39.6343 22.0544 39.4071C22.0544 39.1799 22.394 39.1799 22.394 39.4071Z" fill="#7DA571"/>
<path d="M21.8242 39.9762C21.8242 40.2034 21.4846 40.2034 21.4846 39.9762C21.4846 39.749 21.8242 39.749 21.8242 39.9762Z" fill="#7DA571"/>
<path d="M22.9631 39.9762C22.9631 40.2034 22.6211 40.2034 22.6211 39.9762C22.6211 39.749 22.9631 39.749 22.9631 39.9762Z" fill="#7DA571"/>
<path d="M21.2576 40.543C21.2576 40.7702 20.9155 40.7702 20.9155 40.543C20.9155 40.3158 21.2576 40.3158 21.2576 40.543Z" fill="#7DA571"/>
<path d="M20.1218 40.543C20.1218 40.7702 19.7798 40.7702 19.7798 40.543C19.7798 40.3158 20.1218 40.3158 20.1218 40.543Z" fill="#7DA571"/>
<path d="M21.2576 39.4071C21.2576 39.6343 20.918 39.6343 20.918 39.4071C20.918 39.1799 21.2576 39.1799 21.2576 39.4071Z" fill="#7DA571"/>
<path d="M19.5527 39.9762C19.5527 40.2034 19.2131 40.2034 19.2131 39.9762C19.2131 39.749 19.5527 39.749 19.5527 39.9762Z" fill="#7DA571"/>
<path d="M20.6909 39.9762C20.6909 40.2034 20.3489 40.2034 20.3489 39.9762C20.3489 39.749 20.6909 39.749 20.6909 39.9762Z" fill="#7DA571"/>
<path d="M18.8146 40.3722C18.7193 40.3746 18.6436 40.4479 18.6436 40.5432C18.6436 40.636 18.7193 40.7118 18.8146 40.7142C18.9074 40.7142 18.9856 40.6385 18.9856 40.5432C18.9856 40.4479 18.9099 40.3746 18.8146 40.3722Z" fill="#7DA571"/>
<path d="M21.8242 38.8406C21.8242 39.0678 21.4846 39.0678 21.4846 38.8406C21.4846 38.6134 21.8242 38.6134 21.8242 38.8406Z" fill="#7DA571"/>
<path d="M22.9631 38.8406C22.9631 39.0678 22.6211 39.0678 22.6211 38.8406C22.6211 38.6134 22.9631 38.6134 22.9631 38.8406Z" fill="#7DA571"/>
<path d="M20.1218 39.4071C20.1218 39.6343 19.7822 39.6343 19.7822 39.4071C19.7822 39.1799 20.1218 39.1799 20.1218 39.4071Z" fill="#7DA571"/>
<path d="M19.5527 38.8406C19.5527 39.0678 19.2131 39.0678 19.2131 38.8406C19.2131 38.6134 19.5527 38.6134 19.5527 38.8406Z" fill="#7DA571"/>
<path d="M20.6909 38.8406C20.6909 39.0678 20.3489 39.0678 20.3489 38.8406C20.3489 38.6134 20.6909 38.6134 20.6909 38.8406Z" fill="#7DA571"/>
<path d="M18.8146 39.2389C18.7193 39.2389 18.6436 39.3146 18.6436 39.4099C18.6436 39.5028 18.7193 39.5785 18.8146 39.5809C18.9074 39.5785 18.9856 39.5052 18.9856 39.4099C18.9856 39.3146 18.9099 39.2389 18.8146 39.2389Z" fill="#7DA571"/>
<path d="M23.5298 45.0873C23.5298 45.3169 23.1877 45.3169 23.1877 45.0873C23.1877 44.8601 23.5298 44.8601 23.5298 45.0873Z" fill="#7DA571"/>
<path d="M23.5298 43.9515C23.5298 43.8587 23.4541 43.7805 23.3588 43.7805C23.2659 43.7805 23.1877 43.8563 23.1877 43.9515H23.5298Z" fill="#7DA571"/>
<path d="M23.5298 42.8152C23.5298 43.0424 23.1902 43.0424 23.1902 42.8152C23.1902 42.5904 23.5298 42.5904 23.5298 42.8152Z" fill="#7DA571"/>
<path d="M23.5298 41.6793C23.5298 41.9065 23.1902 41.9065 23.1902 41.6793C23.1902 41.4521 23.5298 41.4521 23.5298 41.6793Z" fill="#7DA571"/>
<path d="M23.5298 40.543C23.5298 40.7702 23.1877 40.7702 23.1877 40.543C23.1877 40.3158 23.5298 40.3158 23.5298 40.543Z" fill="#7DA571"/>
<path d="M23.5298 39.4071C23.5298 39.6343 23.1902 39.6343 23.1902 39.4071C23.1902 39.1799 23.5298 39.1799 23.5298 39.4071Z" fill="#7DA571"/>
<path d="M23.5298 38.2712C23.5298 38.4985 23.1902 38.4985 23.1902 38.2712C23.1902 38.0465 23.5298 38.0465 23.5298 38.2712Z" fill="#7DA571"/>
<path d="M23.3585 44.1223C23.4514 44.1223 23.5295 44.0466 23.5295 43.9513H23.1875C23.1899 44.0466 23.2657 44.1223 23.3585 44.1223Z" fill="#7DA571"/>
<path d="M23.5298 37.135C23.5298 37.3622 23.1902 37.3622 23.1902 37.135C23.1902 36.9078 23.5298 36.9078 23.5298 37.135Z" fill="#7DA571"/>
<path d="M22.9631 37.7041C22.9631 37.9289 22.6211 37.9289 22.6211 37.7041C22.6211 37.4769 22.9631 37.4769 22.9631 37.7041Z" fill="#7DA571"/>
<path d="M22.9631 36.5682C22.9631 36.7955 22.6211 36.7955 22.6211 36.5682C22.6211 36.341 22.9631 36.341 22.9631 36.5682Z" fill="#7DA571"/>
<path d="M22.394 38.2712C22.394 38.4985 22.0544 38.4985 22.0544 38.2712C22.0544 38.0465 22.394 38.0465 22.394 38.2712Z" fill="#7DA571"/>
<path d="M21.2576 38.2712C21.2576 38.4985 20.918 38.4985 20.918 38.2712C20.918 38.0465 21.2576 38.0465 21.2576 38.2712Z" fill="#7DA571"/>
<path d="M22.394 37.135C22.394 37.3622 22.0544 37.3622 22.0544 37.135C22.0544 36.9078 22.394 36.9078 22.394 37.135Z" fill="#7DA571"/>
<path d="M21.2576 37.135C21.2576 37.3622 20.918 37.3622 20.918 37.135C20.918 36.9078 21.2576 36.9078 21.2576 37.135Z" fill="#7DA571"/>
<path d="M20.6909 37.7041C20.6909 37.9289 20.3489 37.9289 20.3489 37.7041C20.3489 37.4769 20.6909 37.4769 20.6909 37.7041Z" fill="#7DA571"/>
<path d="M21.8242 37.7041C21.8242 37.9289 21.4846 37.9289 21.4846 37.7041C21.4846 37.4769 21.8242 37.4769 21.8242 37.7041Z" fill="#7DA571"/>
<path d="M20.6909 36.5682C20.6909 36.7955 20.3489 36.7955 20.3489 36.5682C20.3489 36.341 20.6909 36.341 20.6909 36.5682Z" fill="#7DA571"/>
<path d="M21.8242 36.5682C21.8242 36.7955 21.4846 36.7955 21.4846 36.5682C21.4846 36.341 21.8242 36.341 21.8242 36.5682Z" fill="#7DA571"/>
<path d="M20.1218 38.2712C20.1218 38.4985 19.7822 38.4985 19.7822 38.2712C19.7822 38.0465 20.1218 38.0465 20.1218 38.2712Z" fill="#7DA571"/>
<path d="M18.8146 38.1024C18.7193 38.1024 18.6436 38.1781 18.6436 38.2734C18.6436 38.3663 18.7193 38.442 18.8146 38.442C18.9074 38.442 18.9856 38.3663 18.9856 38.2734C18.9856 38.1757 18.9099 38.1024 18.8146 38.1024Z" fill="#7DA571"/>
<path d="M20.1218 37.135C20.1218 37.3622 19.7822 37.3622 19.7822 37.135C19.7822 36.9078 20.1218 36.9078 20.1218 37.135Z" fill="#7DA571"/>
<path d="M18.8146 36.9666C18.7193 36.9666 18.6436 37.0423 18.6436 37.1376C18.6436 37.2304 18.7193 37.3061 18.8146 37.3086C18.9074 37.3061 18.9856 37.2329 18.9856 37.1376C18.9856 37.0423 18.9099 36.9666 18.8146 36.9666Z" fill="#7DA571"/>
<path d="M19.5527 37.7041C19.5527 37.9289 19.2131 37.9289 19.2131 37.7041C19.2131 37.4769 19.5527 37.4769 19.5527 37.7041Z" fill="#7DA571"/>
<path d="M23.5298 35.9991C23.5298 36.2263 23.1902 36.2263 23.1902 35.9991C23.1902 35.7719 23.5298 35.7719 23.5298 35.9991Z" fill="#7DA571"/>
<path d="M22.394 35.9991C22.394 36.2263 22.0544 36.2263 22.0544 35.9991C22.0544 35.7719 22.394 35.7719 22.394 35.9991Z" fill="#7DA571"/>
<path d="M23.5298 34.8627C23.5298 35.0899 23.1902 35.0899 23.1902 34.8627C23.1902 34.6355 23.5298 34.6355 23.5298 34.8627Z" fill="#7DA571"/>
<path d="M22.394 34.8627C22.394 35.0899 22.0544 35.0899 22.0544 34.8627C22.0544 34.6355 22.394 34.6355 22.394 34.8627Z" fill="#7DA571"/>
<path d="M21.8242 35.4325C21.8242 35.6573 21.4846 35.6573 21.4846 35.4325C21.4846 35.2053 21.8242 35.2053 21.8242 35.4325Z" fill="#7DA571"/>
<path d="M22.9631 35.4325C22.9631 35.6573 22.6211 35.6573 22.6211 35.4325C22.6211 35.2053 22.9631 35.2053 22.9631 35.4325Z" fill="#7DA571"/>
<path d="M22.9631 34.296C22.9631 34.5232 22.6211 34.5232 22.6211 34.296C22.6211 34.0688 22.9631 34.0688 22.9631 34.296Z" fill="#7DA571"/>
<path d="M23.5298 33.7269C23.5298 33.9541 23.1902 33.9541 23.1902 33.7269C23.1902 33.4997 23.5298 33.4997 23.5298 33.7269Z" fill="#7DA571"/>
<path d="M23.5298 32.5911C23.5298 32.8183 23.1902 32.8183 23.1902 32.5911C23.1902 32.3663 23.5298 32.3663 23.5298 32.5911Z" fill="#7DA571"/>
<path d="M22.9631 33.1603C22.9631 33.3875 22.6211 33.3875 22.6211 33.1603C22.6211 32.9331 22.9631 32.9331 22.9631 33.1603Z" fill="#7DA571"/>
<path d="M22.9631 32.0238C22.9631 32.251 22.6211 32.251 22.6211 32.0238C22.6211 31.7966 22.9631 31.7966 22.9631 32.0238Z" fill="#7DA571"/>
<path d="M22.394 33.7269C22.394 33.9541 22.0544 33.9541 22.0544 33.7269C22.0544 33.4997 22.394 33.4997 22.394 33.7269Z" fill="#7DA571"/>
<path d="M22.394 32.5911C22.394 32.8183 22.0544 32.8183 22.0544 32.5911C22.0544 32.3663 22.394 32.3663 22.394 32.5911Z" fill="#7DA571"/>
<path d="M21.8242 32.0238C21.8242 32.251 21.4846 32.251 21.4846 32.0238C21.4846 31.7966 21.8242 31.7966 21.8242 32.0238Z" fill="#7DA571"/>
<path d="M23.5298 31.4546C23.5298 31.6842 23.1877 31.6842 23.1877 31.4546C23.1877 31.2274 23.5298 31.2274 23.5298 31.4546Z" fill="#7DA571"/>
<path d="M22.394 31.4546C22.394 31.6842 22.052 31.6842 22.052 31.4546C22.052 31.2274 22.394 31.2274 22.394 31.4546Z" fill="#7DA571"/>
<path d="M23.5298 30.3188C23.5298 30.546 23.1902 30.546 23.1902 30.3188C23.1902 30.0916 23.5298 30.0916 23.5298 30.3188Z" fill="#7DA571"/>
<path d="M22.394 30.3188C22.394 30.546 22.0544 30.546 22.0544 30.3188C22.0544 30.0916 22.394 30.0916 22.394 30.3188Z" fill="#7DA571"/>
<path d="M21.8242 30.8881C21.8242 31.1153 21.4846 31.1153 21.4846 30.8881C21.4846 30.6608 21.8242 30.6608 21.8242 30.8881Z" fill="#7DA571"/>
<path d="M22.9631 30.8881C22.9631 31.1153 22.6211 31.1153 22.6211 30.8881C22.6211 30.6608 22.9631 30.6608 22.9631 30.8881Z" fill="#7DA571"/>
<path d="M21.2576 31.4546C21.2576 31.6842 20.9155 31.6842 20.9155 31.4546C20.9155 31.2274 21.2576 31.2274 21.2576 31.4546Z" fill="#7DA571"/>
<path d="M21.2576 30.3188C21.2576 30.546 20.918 30.546 20.918 30.3188C20.918 30.0916 21.2576 30.0916 21.2576 30.3188Z" fill="#7DA571"/>
<path d="M20.1218 30.3188C20.1218 30.546 19.7822 30.546 19.7822 30.3188C19.7822 30.0916 20.1218 30.0916 20.1218 30.3188Z" fill="#7DA571"/>
<path d="M19.5527 30.8881C19.5527 31.1153 19.2131 31.1153 19.2131 30.8881C19.2131 30.6608 19.5527 30.6608 19.5527 30.8881Z" fill="#7DA571"/>
<path d="M20.6909 30.8881C20.6909 31.1153 20.3489 31.1153 20.3489 30.8881C20.3489 30.6608 20.6909 30.6608 20.6909 30.8881Z" fill="#7DA571"/>
<path d="M21.8242 29.7522C21.8242 29.977 21.4846 29.977 21.4846 29.7522C21.4846 29.525 21.8242 29.525 21.8242 29.7522Z" fill="#7DA571"/>
<path d="M22.9631 29.7522C22.9631 29.977 22.6211 29.977 22.6211 29.7522C22.6211 29.525 22.9631 29.525 22.9631 29.7522Z" fill="#7DA571"/>
<path d="M19.5527 29.7522C19.5527 29.977 19.2131 29.977 19.2131 29.7522C19.2131 29.525 19.5527 29.525 19.5527 29.7522Z" fill="#7DA571"/>
<path d="M20.6909 29.7522C20.6909 29.977 20.3489 29.977 20.3489 29.7522C20.3489 29.525 20.6909 29.525 20.6909 29.7522Z" fill="#7DA571"/>
<path d="M23.5298 29.1824C23.5298 29.4096 23.1902 29.4096 23.1902 29.1824C23.1902 28.9552 23.5298 28.9552 23.5298 29.1824Z" fill="#7DA571"/>
<path d="M22.9631 28.6157C22.9631 28.8429 22.6211 28.8429 22.6211 28.6157C22.6211 28.3885 22.9631 28.3885 22.9631 28.6157Z" fill="#7DA571"/>
<path d="M22.394 29.1824C22.394 29.4096 22.0544 29.4096 22.0544 29.1824C22.0544 28.9552 22.394 28.9552 22.394 29.1824Z" fill="#7DA571"/>
<path d="M21.2576 29.1824C21.2576 29.4096 20.918 29.4096 20.918 29.1824C20.918 28.9552 21.2576 28.9552 21.2576 29.1824Z" fill="#7DA571"/>
<path d="M22.394 28.0466C22.394 28.2738 22.0544 28.2738 22.0544 28.0466C22.0544 27.8194 22.394 27.8194 22.394 28.0466Z" fill="#7DA571"/>
<path d="M21.2576 28.0466C21.2576 28.2738 20.918 28.2738 20.918 28.0466C20.918 27.8194 21.2576 27.8194 21.2576 28.0466Z" fill="#7DA571"/>
<path d="M20.6909 28.6157C20.6909 28.8429 20.3489 28.8429 20.3489 28.6157C20.3489 28.3885 20.6909 28.3885 20.6909 28.6157Z" fill="#7DA571"/>
<path d="M21.8242 28.6157C21.8242 28.8429 21.4846 28.8429 21.4846 28.6157C21.4846 28.3885 21.8242 28.3885 21.8242 28.6157Z" fill="#7DA571"/>
<path d="M20.6909 27.4801C20.6909 27.7049 20.3489 27.7049 20.3489 27.4801C20.3489 27.2529 20.6909 27.2529 20.6909 27.4801Z" fill="#7DA571"/>
<path d="M21.8242 27.4801C21.8242 27.7049 21.4846 27.7049 21.4846 27.4801C21.4846 27.2529 21.8242 27.2529 21.8242 27.4801Z" fill="#7DA571"/>
<path d="M20.1218 29.1824C20.1218 29.4096 19.7822 29.4096 19.7822 29.1824C19.7822 28.9552 20.1218 28.9552 20.1218 29.1824Z" fill="#7DA571"/>
<path d="M20.1218 28.0466C20.1218 28.2738 19.7822 28.2738 19.7822 28.0466C19.7822 27.8194 20.1218 27.8194 20.1218 28.0466Z" fill="#7DA571"/>
<path d="M19.5527 28.6157C19.5527 28.8429 19.2131 28.8429 19.2131 28.6157C19.2131 28.3885 19.5527 28.3885 19.5527 28.6157Z" fill="#7DA571"/>
<path d="M19.5527 27.4801C19.5527 27.7049 19.2131 27.7049 19.2131 27.4801C19.2131 27.2529 19.5527 27.2529 19.5527 27.4801Z" fill="#7DA571"/>
<path d="M21.2576 26.9108C21.2576 27.138 20.918 27.138 20.918 26.9108C20.918 26.686 21.2576 26.686 21.2576 26.9108Z" fill="#7DA571"/>
<path d="M20.1218 26.9108C20.1218 27.138 19.7822 27.138 19.7822 26.9108C19.7822 26.686 20.1218 26.686 20.1218 26.9108Z" fill="#7DA571"/>
<path d="M20.1218 25.7743C20.1218 26.0015 19.7822 26.0015 19.7822 25.7743C19.7822 25.5471 20.1218 25.5471 20.1218 25.7743Z" fill="#7DA571"/>
<path d="M19.5527 26.3436C19.5527 26.5684 19.2131 26.5684 19.2131 26.3436C19.2131 26.1164 19.5527 26.1164 19.5527 26.3436Z" fill="#7DA571"/>
<path d="M20.6909 26.3436C20.6909 26.5684 20.3489 26.5684 20.3489 26.3436C20.3489 26.1164 20.6909 26.1164 20.6909 26.3436Z" fill="#7DA571"/>
<path d="M19.5527 25.2078C19.5527 25.435 19.2131 25.435 19.2131 25.2078C19.2131 24.9806 19.5527 24.9806 19.5527 25.2078Z" fill="#7DA571"/>
<path d="M18.4163 41.1127C18.4163 41.3399 18.0767 41.3399 18.0767 41.1127C18.0767 40.8855 18.4163 40.8855 18.4163 41.1127Z" fill="#7DA571"/>
<path d="M17.8496 41.6793C17.8496 41.9065 17.51 41.9065 17.51 41.6793C17.51 41.4521 17.8496 41.4521 17.8496 41.6793Z" fill="#7DA571"/>
<path d="M17.2805 41.1127C17.2805 41.3399 16.9409 41.3399 16.9409 41.1127C16.9409 40.8855 17.2805 40.8855 17.2805 41.1127Z" fill="#7DA571"/>
<path d="M17.8496 40.543C17.8496 40.7702 17.5076 40.7702 17.5076 40.543C17.5076 40.3158 17.8496 40.3158 17.8496 40.543Z" fill="#7DA571"/>
<path d="M17.2805 39.9762C17.2805 40.2034 16.9409 40.2034 16.9409 39.9762C16.9409 39.749 17.2805 39.749 17.2805 39.9762Z" fill="#7DA571"/>
<path d="M18.4163 39.9762C18.4163 40.2034 18.0767 40.2034 18.0767 39.9762C18.0767 39.749 18.4163 39.749 18.4163 39.9762Z" fill="#7DA571"/>
<path d="M16.7131 40.543C16.7131 40.7702 16.3711 40.7702 16.3711 40.543C16.3711 40.3158 16.7131 40.3158 16.7131 40.543Z" fill="#7DA571"/>
<path d="M15.5774 39.4071C15.5774 39.6343 15.2378 39.6343 15.2378 39.4071C15.2378 39.1799 15.5774 39.1799 15.5774 39.4071Z" fill="#7DA571"/>
<path d="M16.1465 39.9762C16.1465 40.2034 15.8044 40.2034 15.8044 39.9762C15.8044 39.749 16.1465 39.749 16.1465 39.9762Z" fill="#7DA571"/>
<path d="M17.8496 39.4071C17.8496 39.6343 17.51 39.6343 17.51 39.4071C17.51 39.1799 17.8496 39.1799 17.8496 39.4071Z" fill="#7DA571"/>
<path d="M17.2805 38.8406C17.2805 39.0678 16.9409 39.0678 16.9409 38.8406C16.9409 38.6134 17.2805 38.6134 17.2805 38.8406Z" fill="#7DA571"/>
<path d="M18.4163 38.8406C18.4163 39.0678 18.0767 39.0678 18.0767 38.8406C18.0767 38.6134 18.4163 38.6134 18.4163 38.8406Z" fill="#7DA571"/>
<path d="M16.7131 39.4071C16.7131 39.6343 16.3735 39.6343 16.3735 39.4071C16.3735 39.1799 16.7131 39.1799 16.7131 39.4071Z" fill="#7DA571"/>
<path d="M15.0083 38.8406C15.0083 39.0678 14.6687 39.0678 14.6687 38.8406C14.6687 38.6134 15.0083 38.6134 15.0083 38.8406Z" fill="#7DA571"/>
<path d="M16.1465 38.8406C16.1465 39.0678 15.8044 39.0678 15.8044 38.8406C15.8044 38.6134 16.1465 38.6134 16.1465 38.8406Z" fill="#7DA571"/>
<path d="M18.4163 37.7041C18.4163 37.9289 18.0767 37.9289 18.0767 37.7041C18.0767 37.4769 18.4163 37.4769 18.4163 37.7041Z" fill="#7DA571"/>
<path d="M17.8496 38.2712C17.8496 38.4985 17.51 38.4985 17.51 38.2712C17.51 38.0465 17.8496 38.0465 17.8496 38.2712Z" fill="#7DA571"/>
<path d="M16.7131 38.2712C16.7131 38.4985 16.3735 38.4985 16.3735 38.2712C16.3735 38.0465 16.7131 38.0465 16.7131 38.2712Z" fill="#7DA571"/>
<path d="M17.8496 37.135C17.8496 37.3622 17.51 37.3622 17.51 37.135C17.51 36.9078 17.8496 36.9078 17.8496 37.135Z" fill="#7DA571"/>
<path d="M16.7131 37.135C16.7131 37.3622 16.3735 37.3622 16.3735 37.135C16.3735 36.9078 16.7131 36.9078 16.7131 37.135Z" fill="#7DA571"/>
<path d="M16.1465 37.7041C16.1465 37.9289 15.8044 37.9289 15.8044 37.7041C15.8044 37.4769 16.1465 37.4769 16.1465 37.7041Z" fill="#7DA571"/>
<path d="M17.2805 37.7041C17.2805 37.9289 16.9409 37.9289 16.9409 37.7041C16.9409 37.4769 17.2805 37.4769 17.2805 37.7041Z" fill="#7DA571"/>
<path d="M16.1465 36.5682C16.1465 36.7955 15.8044 36.7955 15.8044 36.5682C15.8044 36.341 16.1465 36.341 16.1465 36.5682Z" fill="#7DA571"/>
<path d="M17.2805 36.5682C17.2805 36.7955 16.9409 36.7955 16.9409 36.5682C16.9409 36.341 17.2805 36.341 17.2805 36.5682Z" fill="#7DA571"/>
<path d="M15.5774 38.2712C15.5774 38.4985 15.2378 38.4985 15.2378 38.2712C15.2378 38.0465 15.5774 38.0465 15.5774 38.2712Z" fill="#7DA571"/>
<path d="M14.4416 38.2712C14.4416 38.4985 14.1021 38.4985 14.1021 38.2712C14.1021 38.0465 14.4416 38.0465 14.4416 38.2712Z" fill="#7DA571"/>
<path d="M15.5774 37.135C15.5774 37.3622 15.2378 37.3622 15.2378 37.135C15.2378 36.9078 15.5774 36.9078 15.5774 37.135Z" fill="#7DA571"/>
<path d="M14.4416 37.135C14.4416 37.3622 14.1021 37.3622 14.1021 37.135C14.1021 36.9078 14.4416 36.9078 14.4416 37.135Z" fill="#7DA571"/>
<path d="M15.0083 37.7041C15.0083 37.9289 14.6687 37.9289 14.6687 37.7041C14.6687 37.4769 15.0083 37.4769 15.0083 37.7041Z" fill="#7DA571"/>
<path d="M15.0083 36.5682C15.0083 36.7955 14.6687 36.7955 14.6687 36.5682C14.6687 36.341 15.0083 36.341 15.0083 36.5682Z" fill="#7DA571"/>
<path d="M16.7131 35.9991C16.7131 36.2263 16.3735 36.2263 16.3735 35.9991C16.3735 35.7719 16.7131 35.7719 16.7131 35.9991Z" fill="#7DA571"/>
<path d="M15.5774 35.9991C15.5774 36.2263 15.2378 36.2263 15.2378 35.9991C15.2378 35.7719 15.5774 35.7719 15.5774 35.9991Z" fill="#7DA571"/>
<path d="M15.5774 34.8627C15.5774 35.0899 15.2378 35.0899 15.2378 34.8627C15.2378 34.6355 15.5774 34.6355 15.5774 34.8627Z" fill="#7DA571"/>
<path d="M15.0083 35.4325C15.0083 35.6573 14.6687 35.6573 14.6687 35.4325C14.6687 35.2053 15.0083 35.2053 15.0083 35.4325Z" fill="#7DA571"/>
<path d="M16.1465 35.4325C16.1465 35.6573 15.8044 35.6573 15.8044 35.4325C15.8044 35.2053 16.1465 35.2053 16.1465 35.4325Z" fill="#7DA571"/>
<path d="M14.4416 35.9991C14.4416 36.2263 14.1021 36.2263 14.1021 35.9991C14.1021 35.7719 14.4416 35.7719 14.4416 35.9991Z" fill="#7DA571"/>
<path d="M15.0083 34.296C15.0083 34.5232 14.6687 34.5232 14.6687 34.296C14.6687 34.0688 15.0083 34.0688 15.0083 34.296Z" fill="#7DA571"/>
<path d="M15.9757 34.1254C15.8804 34.1254 15.8047 34.2011 15.8047 34.2939C15.8047 34.3868 15.8804 34.4649 15.9757 34.4649C16.0588 34.4649 16.1174 34.4014 16.1345 34.3232C16.2713 34.8607 16.5596 35.3762 16.9969 35.7965C17.3243 36.1092 17.7054 36.334 18.1135 36.4806C18.0964 36.5074 18.0768 36.5343 18.0768 36.5661C18.0768 36.6589 18.1526 36.7371 18.2478 36.7371C18.3407 36.7371 18.414 36.6638 18.4164 36.571C18.6436 36.6272 18.8733 36.6614 19.1103 36.6614C19.1567 36.6614 19.2007 36.6516 19.2495 36.6492C19.2789 36.698 19.3228 36.7347 19.3864 36.7347C19.4596 36.7347 19.5085 36.6834 19.5329 36.6198C20.0704 36.5392 20.5566 36.3047 20.9451 35.9357C20.9353 35.9553 20.9206 35.9724 20.9206 35.9968C20.9206 36.0897 20.9964 36.1654 21.0916 36.1654C21.1845 36.1654 21.2627 36.0897 21.2627 35.9968C21.2627 35.9015 21.1869 35.8258 21.0916 35.8258C21.077 35.8258 21.0672 35.838 21.0526 35.8404C21.4288 35.4422 21.6536 34.9487 21.7317 34.4308C21.7879 34.4039 21.8294 34.3575 21.8294 34.2891C21.8294 34.2304 21.7952 34.1865 21.7488 34.1571C21.7635 33.8762 21.7488 33.5928 21.6804 33.3142C21.7635 33.302 21.8294 33.2385 21.8294 33.153C21.8294 33.0602 21.7537 32.982 21.6584 32.982C21.6267 32.982 21.6022 32.9991 21.5778 33.0162C21.4214 32.5813 21.1722 32.166 20.8106 31.819C20.1388 31.1741 19.2153 30.9102 18.3577 31.0079C18.3968 30.9761 18.4237 30.9346 18.4237 30.8809C18.4237 30.788 18.348 30.7098 18.2527 30.7098C18.1598 30.7098 18.0816 30.7856 18.0816 30.8809C18.0816 30.9493 18.1281 30.9957 18.1843 31.0226C17.6492 31.1178 17.1508 31.3597 16.7697 31.7555C16.4154 32.1244 16.2053 32.5764 16.11 33.0552C16.0783 33.0137 16.0368 32.9819 15.9806 32.9819C15.8853 32.9819 15.8095 33.0577 15.8095 33.153C15.8095 33.2482 15.8853 33.324 15.9806 33.324C16.0148 33.324 16.0416 33.3044 16.0685 33.2873C16.0343 33.5952 16.0539 33.9079 16.1198 34.2182C16.0881 34.1693 16.0416 34.1253 15.9757 34.1253L15.9757 34.1254ZM17.3365 32.3077C17.6835 31.9461 18.1672 31.7458 18.6949 31.7458C19.2691 31.7458 19.8261 31.9754 20.261 32.3932C21.1258 33.2214 21.2162 34.531 20.4686 35.3128C19.743 36.0701 18.3798 36.0286 17.5442 35.2297C16.6793 34.4015 16.5865 33.0895 17.3365 32.3077V32.3077Z" fill="#7DA571"/>
<path d="M14.4416 34.8627C14.4416 35.0899 14.1021 35.0899 14.1021 34.8627C14.1021 34.6355 14.4416 34.6355 14.4416 34.8627Z" fill="#7DA571"/>
<path d="M16.1465 32.0238C16.1465 32.251 15.8044 32.251 15.8044 32.0238C15.8044 31.7966 16.1465 31.7966 16.1465 32.0238Z" fill="#7DA571"/>
<path d="M15.5774 33.7269C15.5774 33.9541 15.2378 33.9541 15.2378 33.7269C15.2378 33.4997 15.5774 33.4997 15.5774 33.7269Z" fill="#7DA571"/>
<path d="M14.4416 33.7269C14.4416 33.9541 14.1021 33.9541 14.1021 33.7269C14.1021 33.4997 14.4416 33.4997 14.4416 33.7269Z" fill="#7DA571"/>
<path d="M15.5774 32.5911C15.5774 32.8183 15.2378 32.8183 15.2378 32.5911C15.2378 32.3663 15.5774 32.3663 15.5774 32.5911Z" fill="#7DA571"/>
<path d="M14.4416 32.5911C14.4416 32.8183 14.1021 32.8183 14.1021 32.5911C14.1021 32.3663 14.4416 32.3663 14.4416 32.5911Z" fill="#7DA571"/>
<path d="M15.0083 33.1603C15.0083 33.3875 14.6687 33.3875 14.6687 33.1603C14.6687 32.9331 15.0083 32.9331 15.0083 33.1603Z" fill="#7DA571"/>
<path d="M15.0083 32.0238C15.0083 32.251 14.6687 32.251 14.6687 32.0238C14.6687 31.7966 15.0083 31.7966 15.0083 32.0238Z" fill="#7DA571"/>
<path d="M18.8146 30.4896C18.9074 30.4896 18.9856 30.4139 18.9856 30.3186C18.9856 30.2233 18.9099 30.15 18.8146 30.1476C18.7193 30.15 18.6436 30.2233 18.6436 30.3186C18.646 30.4139 18.7193 30.4896 18.8146 30.4896Z" fill="#7DA571"/>
<path d="M17.8496 30.3188C17.8496 30.546 17.51 30.546 17.51 30.3188C17.51 30.0916 17.8496 30.0916 17.8496 30.3188Z" fill="#7DA571"/>
<path d="M17.2805 30.8881C17.2805 31.1153 16.9409 31.1153 16.9409 30.8881C16.9409 30.6608 17.2805 30.6608 17.2805 30.8881Z" fill="#7DA571"/>
<path d="M16.7131 31.4546C16.7131 31.6842 16.3711 31.6842 16.3711 31.4546C16.3711 31.2274 16.7131 31.2274 16.7131 31.4546Z" fill="#7DA571"/>
<path d="M15.5774 31.4546C15.5774 31.6842 15.2354 31.6842 15.2354 31.4546C15.2354 31.2274 15.5774 31.2274 15.5774 31.4546Z" fill="#7DA571"/>
<path d="M16.7131 30.3188C16.7131 30.546 16.3735 30.546 16.3735 30.3188C16.3735 30.0916 16.7131 30.0916 16.7131 30.3188Z" fill="#7DA571"/>
<path d="M15.5774 30.3188C15.5774 30.546 15.2378 30.546 15.2378 30.3188C15.2378 30.0916 15.5774 30.0916 15.5774 30.3188Z" fill="#7DA571"/>
<path d="M15.0083 30.8881C15.0083 31.1153 14.6687 31.1153 14.6687 30.8881C14.6687 30.6608 15.0083 30.6608 15.0083 30.8881Z" fill="#7DA571"/>
<path d="M16.1465 30.8881C16.1465 31.1153 15.8044 31.1153 15.8044 30.8881C15.8044 30.6608 16.1465 30.6608 16.1465 30.8881Z" fill="#7DA571"/>
<path d="M14.4416 31.4546C14.4416 31.6842 14.1021 31.6842 14.1021 31.4546C14.1021 31.2274 14.4416 31.2274 14.4416 31.4546Z" fill="#7DA571"/>
<path d="M17.2805 29.7522C17.2805 29.977 16.9409 29.977 16.9409 29.7522C16.9409 29.525 17.2805 29.525 17.2805 29.7522Z" fill="#7DA571"/>
<path d="M18.4163 29.7522C18.4163 29.977 18.0767 29.977 18.0767 29.7522C18.0767 29.525 18.4163 29.525 18.4163 29.7522Z" fill="#7DA571"/>
<path d="M15.0083 29.7522C15.0083 29.977 14.6687 29.977 14.6687 29.7522C14.6687 29.525 15.0083 29.525 15.0083 29.7522Z" fill="#7DA571"/>
<path d="M16.1465 29.7522C16.1465 29.977 15.8044 29.977 15.8044 29.7522C15.8044 29.525 16.1465 29.525 16.1465 29.7522Z" fill="#7DA571"/>
<path d="M14.4416 30.3188C14.4416 30.546 14.1021 30.546 14.1021 30.3188C14.1021 30.0916 14.4416 30.0916 14.4416 30.3188Z" fill="#7DA571"/>
<path d="M18.8146 29.3539C18.9074 29.3539 18.9856 29.2781 18.9856 29.1829C18.9856 29.09 18.9099 29.0143 18.8146 29.0118C18.7193 29.0118 18.6436 29.0876 18.6436 29.1829C18.646 29.2781 18.7193 29.3539 18.8146 29.3539Z" fill="#7DA571"/>
<path d="M18.8146 28.2174C18.9074 28.2174 18.9856 28.1417 18.9856 28.0464C18.9856 27.9535 18.9099 27.8778 18.8146 27.8754C18.7193 27.8754 18.6436 27.9511 18.6436 28.0464C18.646 28.1417 18.7193 28.2174 18.8146 28.2174Z" fill="#7DA571"/>
<path d="M18.4163 28.6157C18.4163 28.8429 18.0767 28.8429 18.0767 28.6157C18.0767 28.3885 18.4163 28.3885 18.4163 28.6157Z" fill="#7DA571"/>
<path d="M18.4163 27.4801C18.4163 27.7049 18.0767 27.7049 18.0767 27.4801C18.0767 27.2529 18.4163 27.2529 18.4163 27.4801Z" fill="#7DA571"/>
<path d="M17.8496 29.1824C17.8496 29.4096 17.51 29.4096 17.51 29.1824C17.51 28.9552 17.8496 28.9552 17.8496 29.1824Z" fill="#7DA571"/>
<path d="M16.7131 29.1824C16.7131 29.4096 16.3735 29.4096 16.3735 29.1824C16.3735 28.9552 16.7131 28.9552 16.7131 29.1824Z" fill="#7DA571"/>
<path d="M17.8496 28.0466C17.8496 28.2738 17.51 28.2738 17.51 28.0466C17.51 27.8194 17.8496 27.8194 17.8496 28.0466Z" fill="#7DA571"/>
<path d="M16.7131 28.0466C16.7131 28.2738 16.3735 28.2738 16.3735 28.0466C16.3735 27.8194 16.7131 27.8194 16.7131 28.0466Z" fill="#7DA571"/>
<path d="M16.1465 28.6157C16.1465 28.8429 15.8044 28.8429 15.8044 28.6157C15.8044 28.3885 16.1465 28.3885 16.1465 28.6157Z" fill="#7DA571"/>
<path d="M17.2805 28.6157C17.2805 28.8429 16.9409 28.8429 16.9409 28.6157C16.9409 28.3885 17.2805 28.3885 17.2805 28.6157Z" fill="#7DA571"/>
<path d="M16.1465 27.4801C16.1465 27.7049 15.8044 27.7049 15.8044 27.4801C15.8044 27.2529 16.1465 27.2529 16.1465 27.4801Z" fill="#7DA571"/>
<path d="M17.2805 27.4801C17.2805 27.7049 16.9409 27.7049 16.9409 27.4801C16.9409 27.2529 17.2805 27.2529 17.2805 27.4801Z" fill="#7DA571"/>
<path d="M15.5774 29.1824C15.5774 29.4096 15.2378 29.4096 15.2378 29.1824C15.2378 28.9552 15.5774 28.9552 15.5774 29.1824Z" fill="#7DA571"/>
<path d="M14.4416 29.1824C14.4416 29.4096 14.1021 29.4096 14.1021 29.1824C14.1021 28.9552 14.4416 28.9552 14.4416 29.1824Z" fill="#7DA571"/>
<path d="M15.5774 28.0466C15.5774 28.2738 15.2378 28.2738 15.2378 28.0466C15.2378 27.8194 15.5774 27.8194 15.5774 28.0466Z" fill="#7DA571"/>
<path d="M15.0083 28.6157C15.0083 28.8429 14.6687 28.8429 14.6687 28.6157C14.6687 28.3885 15.0083 28.3885 15.0083 28.6157Z" fill="#7DA571"/>
<path d="M18.8146 27.0815C18.9074 27.0815 18.9856 27.0058 18.9856 26.9105C18.9856 26.8177 18.9099 26.7419 18.8146 26.7395C18.7193 26.7395 18.6436 26.8152 18.6436 26.9105C18.646 27.0058 18.7193 27.0815 18.8146 27.0815Z" fill="#7DA571"/>
<path d="M17.8496 26.9108C17.8496 27.138 17.51 27.138 17.51 26.9108C17.51 26.686 17.8496 26.686 17.8496 26.9108Z" fill="#7DA571"/>
<path d="M18.8146 25.9458C18.9074 25.9458 18.9856 25.8701 18.9856 25.7748C18.9856 25.6819 18.9099 25.6062 18.8146 25.6038C18.7193 25.6038 18.6436 25.6795 18.6436 25.7748C18.646 25.8701 18.7193 25.9458 18.8146 25.9458Z" fill="#7DA571"/>
<path d="M17.8496 25.7743C17.8496 26.0015 17.51 26.0015 17.51 25.7743C17.51 25.5471 17.8496 25.5471 17.8496 25.7743Z" fill="#7DA571"/>
<path d="M17.2805 26.3436C17.2805 26.5684 16.9409 26.5684 16.9409 26.3436C16.9409 26.1164 17.2805 26.1164 17.2805 26.3436Z" fill="#7DA571"/>
<path d="M18.4163 26.3436C18.4163 26.5684 18.0767 26.5684 18.0767 26.3436C18.0767 26.1164 18.4163 26.1164 18.4163 26.3436Z" fill="#7DA571"/>
<path d="M16.7131 26.9108C16.7131 27.138 16.3735 27.138 16.3735 26.9108C16.3735 26.686 16.7131 26.686 16.7131 26.9108Z" fill="#7DA571"/>
<path d="M18.4163 25.2078C18.4163 25.435 18.0767 25.435 18.0767 25.2078C18.0767 24.9806 18.4163 24.9806 18.4163 25.2078Z" fill="#7DA571"/>
<path d="M13.8718 37.7041C13.8718 37.9289 13.5322 37.9289 13.5322 37.7041C13.5322 37.4769 13.8718 37.4769 13.8718 37.7041Z" fill="#7DA571"/>
<path d="M13.8718 36.5682C13.8718 36.7955 13.5322 36.7955 13.5322 36.5682C13.5322 36.341 13.8718 36.341 13.8718 36.5682Z" fill="#7DA571"/>
<path d="M13.3052 37.135C13.3052 37.3622 12.9656 37.3622 12.9656 37.135C12.9656 36.9078 13.3052 36.9078 13.3052 37.135Z" fill="#7DA571"/>
<path d="M12.7361 36.5682C12.7361 36.7955 12.3965 36.7955 12.3965 36.5682C12.3965 36.341 12.7361 36.341 12.7361 36.5682Z" fill="#7DA571"/>
<path d="M13.3052 35.9991C13.3052 36.2263 12.9656 36.2263 12.9656 35.9991C12.9656 35.7719 13.3052 35.7719 13.3052 35.9991Z" fill="#7DA571"/>
<path d="M12.7361 35.4325C12.7361 35.6573 12.3965 35.6573 12.3965 35.4325C12.3965 35.2053 12.7361 35.2053 12.7361 35.4325Z" fill="#7DA571"/>
<path d="M13.8718 35.4325C13.8718 35.6573 13.5322 35.6573 13.5322 35.4325C13.5322 35.2053 13.8718 35.2053 13.8718 35.4325Z" fill="#7DA571"/>
<path d="M13.3052 34.8627C13.3052 35.0899 12.9656 35.0899 12.9656 34.8627C12.9656 34.6355 13.3052 34.6355 13.3052 34.8627Z" fill="#7DA571"/>
<path d="M12.7361 34.296C12.7361 34.5232 12.3965 34.5232 12.3965 34.296C12.3965 34.0688 12.7361 34.0688 12.7361 34.296Z" fill="#7DA571"/>
<path d="M13.8718 34.296C13.8718 34.5232 13.5322 34.5232 13.5322 34.296C13.5322 34.0688 13.8718 34.0688 13.8718 34.296Z" fill="#7DA571"/>
<path d="M12.1694 34.8627C12.1694 35.0899 11.8298 35.0899 11.8298 34.8627C11.8298 34.6355 12.1694 34.6355 12.1694 34.8627Z" fill="#7DA571"/>
<path d="M13.8718 33.1603C13.8718 33.3875 13.5322 33.3875 13.5322 33.1603C13.5322 32.9331 13.8718 32.9331 13.8718 33.1603Z" fill="#7DA571"/>
<path d="M13.8718 32.0238C13.8718 32.251 13.5322 32.251 13.5322 32.0238C13.5322 31.7966 13.8718 31.7966 13.8718 32.0238Z" fill="#7DA571"/>
<path d="M13.3052 33.7269C13.3052 33.9541 12.9656 33.9541 12.9656 33.7269C12.9656 33.4997 13.3052 33.4997 13.3052 33.7269Z" fill="#7DA571"/>
<path d="M12.1694 33.7269C12.1694 33.9541 11.8298 33.9541 11.8298 33.7269C11.8298 33.4997 12.1694 33.4997 12.1694 33.7269Z" fill="#7DA571"/>
<path d="M13.3052 32.5911C13.3052 32.8183 12.9656 32.8183 12.9656 32.5911C12.9656 32.3663 13.3052 32.3663 13.3052 32.5911Z" fill="#7DA571"/>
<path d="M12.1694 32.5911C12.1694 32.8183 11.8298 32.8183 11.8298 32.5911C11.8298 32.3663 12.1694 32.3663 12.1694 32.5911Z" fill="#7DA571"/>
<path d="M12.7361 33.1603C12.7361 33.3875 12.3965 33.3875 12.3965 33.1603C12.3965 32.9331 12.7361 32.9331 12.7361 33.1603Z" fill="#7DA571"/>
<path d="M12.7361 32.0238C12.7361 32.251 12.3965 32.251 12.3965 32.0238C12.3965 31.7966 12.7361 31.7966 12.7361 32.0238Z" fill="#7DA571"/>
<path d="M13.3052 31.4546C13.3052 31.6842 12.9631 31.6842 12.9631 31.4546C12.9631 31.2274 13.3052 31.2274 13.3052 31.4546Z" fill="#7DA571"/>
<path d="M12.7361 30.8881C12.7361 31.1153 12.3965 31.1153 12.3965 30.8881C12.3965 30.6608 12.7361 30.6608 12.7361 30.8881Z" fill="#7DA571"/>
<path d="M13.8718 30.8881C13.8718 31.1153 13.5322 31.1153 13.5322 30.8881C13.5322 30.6608 13.8718 30.6608 13.8718 30.8881Z" fill="#7DA571"/>
<path d="M13.3052 30.3188C13.3052 30.546 12.9656 30.546 12.9656 30.3188C12.9656 30.0916 13.3052 30.0916 13.3052 30.3188Z" fill="#7DA571"/>
<path d="M13.8718 29.7522C13.8718 29.977 13.5322 29.977 13.5322 29.7522C13.5322 29.525 13.8718 29.525 13.8718 29.7522Z" fill="#7DA571"/>
<path d="M44.4038 25.2128C44.3818 25.2128 44.3598 25.1908 44.2938 25.1541C44.5479 24.8658 44.7971 24.5873 45.0439 24.3063C46.0578 23.1531 47.0887 21.9951 47.5602 20.5C48.1466 18.6383 48.0635 16.8109 46.6318 15.3328C45.2246 13.8791 43.4435 13.6323 41.5624 14.2016C39.0239 14.9688 37.0597 16.5397 35.606 18.7336C34.1597 20.9178 33.1727 23.2925 32.8918 25.9187C32.7549 27.2062 32.8991 28.4717 33.395 29.6835C34.3699 32.0582 36.5907 32.9328 38.9238 31.8603C39.1144 31.7724 39.3 31.6722 39.5541 31.5452C39.41 31.9996 39.2194 32.3612 38.9482 32.6788C37.9637 33.8441 37.4262 35.1732 37.3358 36.7123C37.1648 39.5977 39.4613 41.3372 41.8849 41.1466C44.5454 40.9365 46.3435 39.3655 47.7166 37.2327C48.7183 35.6789 49.0774 33.9198 49.1262 32.0924C49.1556 31.0223 49.0798 29.957 48.7744 28.9212C48.2516 27.1206 46.9885 25.3591 44.4037 25.2125L44.4038 25.2128ZM38.5061 31.4183C36.7446 32.2319 34.8683 31.494 34.0669 29.7325C33.5123 28.5086 33.3877 27.221 33.5172 25.7747C33.5099 25.8138 33.5221 25.7307 33.5343 25.6477C33.9643 22.8674 35.0515 20.3656 36.7909 18.1618C38.0712 16.5395 39.7276 15.4231 41.6968 14.8001C43.0747 14.3627 44.416 14.4434 45.6497 15.2813C47.184 16.3246 47.443 18.3035 47.035 19.9551C46.7882 20.9543 46.2532 21.8338 45.5764 22.5863C44.2303 24.0839 43.1919 25.7452 42.3344 27.5727C41.5404 29.2707 40.248 30.6144 38.506 31.4182L38.5061 31.4183ZM48.5325 32.5104C48.3126 34.8264 47.653 36.6221 46.3068 38.1222C44.968 39.6125 43.3897 40.624 41.2911 40.58C39.405 40.5409 37.8707 38.9089 37.8976 37.0375C37.9196 35.4348 38.5255 34.0984 39.5418 32.9013C39.9474 32.4249 40.2136 31.8629 40.3163 31.2424C40.348 31.0494 40.4116 30.9102 40.5606 30.7807C41.9458 29.5713 42.9109 28.0713 43.6047 26.3831C43.8441 25.8016 43.9052 25.765 44.5526 25.8212C46.0259 25.9433 47.0715 26.7129 47.7483 27.998C48.5521 29.5176 48.618 31.1667 48.5325 32.5104L48.5325 32.5104Z" fill="#7DA571"/>
<path d="M41.6526 19.8453C41.8431 19.9845 41.9629 20.1653 42.0215 20.3925C42.0435 20.478 42.0728 20.5587 42.173 20.566C42.2731 20.5758 42.3147 20.4951 42.3611 20.4243C42.6909 19.9308 42.4539 19.4813 41.8187 19.43C41.699 19.4349 41.5255 19.3713 41.4669 19.5424C41.418 19.6865 41.5524 19.772 41.6526 19.8453V19.8453Z" fill="#7DA571"/>
<path d="M43.058 17.0915C43.2486 17.2308 43.3683 17.4115 43.4269 17.6388C43.4489 17.7243 43.4782 17.8049 43.5784 17.8147C43.6785 17.822 43.7201 17.7414 43.7665 17.673C44.0988 17.1794 43.8593 16.7299 43.2241 16.6786C43.1044 16.6835 42.9309 16.62 42.8723 16.791C42.8234 16.9303 42.9554 17.0182 43.058 17.0915L43.058 17.0915Z" fill="#7DA571"/>
<path d="M41.0028 23.2801C41.2251 23.4022 41.4108 23.5537 41.5427 23.7809C41.6771 24.0081 41.7894 23.8835 41.8579 23.7174C42.0362 23.2898 41.7894 22.9014 41.2764 22.8647C41.252 22.8647 41.1836 22.8574 41.1127 22.8623C40.9881 22.8745 40.8366 22.8916 40.7926 23.0162C40.7413 23.1652 40.8953 23.2214 41.0028 23.28V23.2801Z" fill="#7DA571"/>
<path d="M39.8525 19.8083C40.0284 19.3808 39.7841 18.9923 39.271 18.9557C39.2466 18.9557 39.1757 18.9483 39.1073 18.9532C38.9827 18.9654 38.8288 18.9825 38.7873 19.1071C38.7384 19.2562 38.8899 19.3124 38.9974 19.371C39.2197 19.4931 39.4054 19.6446 39.5397 19.8718C39.6717 20.099 39.7841 19.9744 39.8525 19.8083V19.8083Z" fill="#7DA571"/>
<path d="M37.0961 21.8191C37.0717 21.8191 37.0032 21.8094 36.9324 21.8167C36.8078 21.8289 36.6563 21.8436 36.6123 21.9706C36.561 22.1196 36.7125 22.1734 36.8225 22.2345C37.0448 22.3566 37.2305 22.5081 37.3624 22.7353C37.4968 22.9625 37.6091 22.8379 37.6775 22.6718C37.8559 22.2442 37.6091 21.8582 37.0961 21.8191V21.8191Z" fill="#7DA571"/>
<path d="M44.2132 20.4438C44.3793 20.5635 44.4868 20.7223 44.5528 20.9129C44.5797 20.991 44.6188 21.0668 44.7238 21.0766C44.8533 21.0888 44.8924 20.9813 44.9339 20.9006C45.1685 20.4267 44.9266 20.0309 44.3696 19.9845C44.2376 20.004 44.0373 19.9332 43.9689 20.1042C43.8932 20.2899 44.0959 20.3559 44.2132 20.4438L44.2132 20.4438Z" fill="#7DA571"/>
<path d="M39.4955 26.9351C39.2805 27.0011 39.3269 27.1379 39.4295 27.2552C39.6274 27.4775 39.8131 27.6925 39.8839 28.0003C39.9255 28.186 40.0647 28.1542 40.1502 28.0125C40.2284 27.883 40.2821 27.7365 40.3188 27.6534C40.3701 27.2014 39.8815 26.8154 39.4955 26.9351V26.9351Z" fill="#7DA571"/>
<path d="M37.1918 27.7778C36.989 27.6776 36.7594 27.6263 36.5444 27.7094C36.3831 27.7704 36.4589 27.8877 36.5566 27.9634C36.7105 28.0856 36.8546 28.2102 36.9646 28.3763C37.0305 28.4789 37.0134 28.711 37.2113 28.6426C37.3579 28.5913 37.3799 28.4032 37.3848 28.2493C37.4117 28.0514 37.3799 27.8706 37.1918 27.7778H37.1918Z" fill="#7DA571"/>
<path d="M45.8894 34.7802C45.7722 34.7778 45.6622 34.7387 45.606 34.8535C45.5596 34.9512 45.584 35.0465 45.6549 35.1247C45.8381 35.325 45.9725 35.5473 46.014 35.8259C46.0531 36.0751 46.2046 36.0531 46.3267 35.8967C46.4831 35.6964 46.6004 35.4692 46.5051 35.198C46.3976 34.895 46.1142 34.8657 45.8894 34.7802L45.8894 34.7802Z" fill="#7DA571"/>
<path d="M43.1286 33.7319C43.285 33.5316 43.4047 33.3044 43.3045 33.0332C43.197 32.7302 42.9161 32.7009 42.6889 32.6154C42.5716 32.613 42.4617 32.5739 42.4055 32.6887C42.3591 32.7864 42.3835 32.8817 42.4568 32.9623C42.6376 33.1627 42.772 33.385 42.8159 33.6611C42.855 33.9103 43.0065 33.8883 43.1286 33.7319H43.1286Z" fill="#7DA571"/>
<path d="M42.5932 36.3237C42.4075 36.3799 42.454 36.5094 42.5248 36.6194C42.6592 36.8344 42.7862 37.0494 42.8058 37.3108C42.8131 37.4036 42.7813 37.5233 42.9084 37.5551C43.0183 37.5844 43.0916 37.5087 43.1625 37.4378C43.2846 37.3157 43.3555 37.1666 43.3872 36.9981C43.4239 36.656 42.9182 36.2236 42.5932 36.3238L42.5932 36.3237Z" fill="#7DA571"/>
<path d="M39.7963 36.3237C39.6107 36.3799 39.6546 36.5094 39.7279 36.6194C39.8623 36.8344 39.9893 37.0494 40.0089 37.3108C40.0162 37.4036 39.9845 37.5233 40.1139 37.5551C40.2239 37.5844 40.2947 37.5087 40.3656 37.4378C40.4902 37.3157 40.5586 37.1666 40.5903 36.9981C40.627 36.656 40.1213 36.2236 39.7964 36.3238L39.7963 36.3237Z" fill="#7DA571"/>
<path d="M45.7497 33.087C45.8279 32.9698 45.8841 32.8403 45.8768 32.7303C45.9208 32.2466 45.4077 31.885 44.9826 32.0634C44.7725 32.1513 44.8433 32.2955 44.9533 32.3883C45.1878 32.5789 45.3735 32.7914 45.4737 33.0822C45.5372 33.2581 45.6618 33.2214 45.7497 33.087L45.7497 33.087Z" fill="#7DA571"/>
<path d="M45 29.8036C45.0439 29.3198 44.5309 28.9582 44.1058 29.1366C43.8957 29.2246 43.9641 29.3687 44.074 29.4615C44.3085 29.6521 44.4942 29.8647 44.5968 30.1554C44.6604 30.3362 44.7825 30.2996 44.8729 30.1627C44.9511 30.0455 45.0073 29.916 44.9999 29.8036L45 29.8036Z" fill="#7DA571"/>
<path d="M46.8124 29.6959C46.6317 29.7472 46.6512 29.8669 46.744 29.9817C46.9322 30.2138 47.0616 30.463 47.0812 30.7708C47.0934 30.976 47.2351 30.9296 47.3475 30.8392C47.4941 30.7219 47.5429 30.5412 47.604 30.3701C47.6504 30.0501 47.1325 29.6054 46.8125 29.6959L46.8124 29.6959Z" fill="#7DA571"/>
<path d="M22.6035 19.41C23.1483 20.1723 23.9252 20.5558 24.8292 20.7268C24.9171 20.7439 25.0295 20.8221 25.0637 20.9003C25.4864 21.88 26.2535 22.3955 27.2821 22.5469C27.4384 22.5689 27.4922 22.6349 27.5313 22.779C27.7732 23.6195 28.0248 24.455 28.2837 25.2906C28.3766 25.5911 28.572 25.7132 28.7821 25.635C28.9947 25.5544 29.0607 25.3443 28.9703 25.056C28.7577 24.3793 28.5476 23.7025 28.3424 23.0258C28.2935 22.8645 28.2667 22.6935 28.23 22.5323C29.3685 22.2 29.8254 21.7553 30.2138 20.6584C30.2383 20.59 30.3751 20.5289 30.463 20.524C30.6731 20.5118 30.8906 20.5753 31.0958 20.5436C32.0071 20.4043 32.6643 19.9132 32.9843 19.0435C33.3068 18.1713 33.1382 17.37 32.5152 16.6835C32.3173 16.466 32.0608 16.2999 31.8311 16.1093C32.9647 15.6916 33.4338 15.027 33.4656 13.8592C33.4876 13.0041 33.0356 11.9096 31.5917 11.4527C31.836 10.8444 31.8922 10.2409 31.7114 9.62523C31.2961 8.1911 29.8546 7.40198 28.3472 7.77824C27.2234 8.0592 26.488 8.71396 26.3072 9.9013C26.2682 10.1529 26.2266 10.4046 26.1851 10.666C24.7949 10.4657 23.6027 10.754 22.9211 12.0488C22.1905 13.439 22.6108 14.6214 23.7835 15.5914C21.8436 16.2534 21.851 18.3594 22.6035 19.41L22.6035 19.41ZM24.8243 16.3145C24.9855 16.3536 25.1761 16.4001 25.2299 16.2217C25.2714 16.0824 25.2421 15.8479 25.1443 15.7526C24.8292 15.4448 24.4774 15.1712 24.128 14.9024C23.4464 14.3771 23.1678 13.6002 23.3853 12.7989C23.5978 12.0195 24.2673 11.4161 25.0979 11.3696C25.6574 11.3403 26.2218 11.4478 26.813 11.4942C26.879 11.0642 26.9767 10.5585 27.0305 10.0479C27.1428 8.9558 27.9881 8.55027 28.7333 8.43788C29.8327 8.27174 30.7709 8.86787 31.025 9.8842C31.1398 10.3435 31.1081 10.7979 30.8784 11.2279C30.6927 11.5699 30.5217 11.9218 30.3507 12.2564C30.6903 12.2222 31.0152 12.1294 31.3182 12.1734C32.3932 12.3346 32.96 13.3192 32.6521 14.4161C32.5031 14.9463 32.2221 15.3103 31.6285 15.3909C31.2083 15.4496 30.8027 15.5791 30.3874 15.667C30.1064 15.7281 29.9671 15.9211 29.9012 16.1752C29.8205 16.4806 30.1015 16.7005 30.5144 16.6809C30.7245 16.6687 30.9395 16.654 31.1423 16.6882C31.9559 16.8324 32.4884 17.6044 32.3932 18.4742C32.3076 19.2438 31.5845 19.8472 30.788 19.8154C30.5022 19.8032 30.2188 19.7788 29.9329 19.7739C29.7888 19.7715 29.6471 19.7983 29.4809 19.8154C29.5738 20.3334 29.5078 20.7854 29.1853 21.1714C28.897 21.5159 28.5257 21.7211 28.0371 21.809C27.9442 21.2105 27.8881 20.6143 27.7512 20.0353C27.6486 19.5956 27.8514 19.339 28.1397 19.0874C28.6772 18.6208 29.3173 18.418 30.0087 18.3447C30.0747 18.3374 30.1382 18.3398 30.2017 18.3325C30.3972 18.3056 30.5486 18.2177 30.5266 17.9978C30.5022 17.7779 30.3361 17.7217 30.1406 17.7364C29.2782 17.8048 28.4744 18.0344 27.7952 18.6012C27.761 18.6281 27.7244 18.6501 27.5973 18.6525C27.634 17.8194 27.6608 16.9863 27.7122 16.1557C27.7219 16.0213 27.8245 15.8869 27.9027 15.7623C28.4402 14.9023 29.1854 14.3257 30.1894 14.1108C30.2603 14.0937 30.3605 14.0986 30.3996 14.0546C30.4802 13.9593 30.5828 13.8347 30.573 13.7297C30.5681 13.649 30.4142 13.5269 30.3165 13.5171C30.1577 13.5024 29.9916 13.5562 29.8303 13.5977C29.1096 13.7834 28.5037 14.1767 27.9222 14.6752C27.9515 14.5213 27.9662 14.3649 28.0102 14.2183C28.2227 13.5244 28.4402 12.8306 28.6649 12.1417C28.7651 11.8363 28.726 11.653 28.5061 11.5578C28.2911 11.4649 28.0932 11.5626 27.9931 11.8705C27.7317 12.6743 27.4947 13.4878 27.2479 14.2941C27.2284 14.36 27.2113 14.4309 27.2088 14.4504C26.9059 14.0791 26.5956 13.6979 26.2829 13.3168C26.2365 13.2606 26.1729 13.2166 26.1143 13.1727C25.9604 13.0652 25.7967 13.0383 25.6721 13.202C25.5524 13.3608 25.5988 13.5171 25.7527 13.6344C26.1216 13.9154 26.3952 14.2696 26.5858 14.6874C26.8521 15.2713 27.0134 15.8674 26.9425 16.5319C26.879 17.1061 26.9303 17.69 26.9303 18.3447C26.7202 18.1981 26.5809 18.0833 26.427 17.9978C26.1118 17.8268 25.7918 17.6631 25.4668 17.5141C25.2812 17.4285 25.0881 17.4456 25.01 17.6704C24.9367 17.8805 25.0759 17.9929 25.2567 18.0638C25.8822 18.3105 26.4563 18.633 26.857 19.1949C26.9083 19.2658 26.9522 19.3537 26.9645 19.4417C27.0793 20.1868 27.1843 20.9344 27.2919 21.682C27.2967 21.7162 27.2894 21.7529 27.287 21.7871C26.4294 21.7382 25.804 21.0859 25.6306 20.0817C25.2958 20.0329 24.944 20.028 24.6313 19.9205C24.255 19.7886 23.8739 19.6175 23.5588 19.3781C22.8991 18.8773 22.7599 18.1493 22.9333 17.3845C23.1263 16.5392 23.9448 16.097 24.8243 16.3145L24.8243 16.3145Z" fill="#7DA571"/>
</svg>
