<svg width="57" height="57" viewBox="0 0 57 57" fill="none" xmlns="http://www.w3.org/2000/svg">
<path d="M14.194 21.462C14.3307 21.6233 14.5276 21.7026 14.7217 21.7026C14.883 21.7026 15.0471 21.648 15.1811 21.5304C15.4737 21.2788 15.5038 20.8358 15.2522 20.5432L14.842 20.0729C14.5877 19.7803 14.1475 19.7475 13.8549 20.0018C13.5623 20.2534 13.5322 20.6964 13.7838 20.989L14.194 21.462Z" fill="#7DA571"/>
<path d="M21.9022 21.2268C22.039 21.3881 22.2358 21.4674 22.43 21.4674C22.5913 21.4674 22.7554 21.4127 22.8893 21.2951C23.1819 21.0436 23.212 20.6006 22.9604 20.308L22.5503 19.8377C22.2987 19.5451 21.8557 19.5123 21.5631 19.7666C21.2706 20.0182 21.2405 20.4611 21.492 20.7537L21.9022 21.2268Z" fill="#7DA571"/>
<path d="M16.1189 24.2214C16.2009 24.2214 16.2857 24.2077 16.3677 24.1749L16.9502 23.9534C17.3111 23.8167 17.4916 23.412 17.3521 23.051C17.2154 22.6901 16.808 22.5096 16.4497 22.6491L15.8673 22.8706C15.5064 23.0073 15.3259 23.412 15.4654 23.7729C15.572 24.0491 15.8372 24.2214 16.1189 24.2214L16.1189 24.2214Z" fill="#7DA571"/>
<path d="M8.95801 21.9269C9.04005 21.9269 9.12481 21.9132 9.20684 21.8804L9.78926 21.6589C10.1502 21.5222 10.3307 21.1175 10.1912 20.7565C10.0545 20.3956 9.64708 20.2151 9.28885 20.3546L8.70643 20.5761C8.34549 20.7128 8.16502 21.1175 8.30447 21.4784C8.41111 21.7573 8.67635 21.9269 8.95799 21.9269L8.95801 21.9269Z" fill="#7DA571"/>
<path d="M18.2734 21.8148C18.3555 21.8148 18.4402 21.8011 18.5223 21.7683L19.1047 21.5468C19.4656 21.4101 19.6461 21.0054 19.5066 20.6444C19.3699 20.2835 18.9625 20.103 18.6043 20.2425L18.0219 20.4639C17.6609 20.6007 17.4804 21.0054 17.6199 21.3663C17.7238 21.6452 17.989 21.8148 18.2734 21.8148L18.2734 21.8148Z" fill="#7DA571"/>
<path d="M25.2903 22.589C25.3723 22.589 25.4571 22.5754 25.5391 22.5425L26.1215 22.3211C26.4825 22.1843 26.6629 21.7796 26.5235 21.4187C26.3868 21.0578 25.9794 20.88 25.6211 21.0167L25.0387 21.2382C24.6778 21.3749 24.4973 21.7796 24.6367 22.1406C24.7434 22.4195 25.0086 22.589 25.2903 22.589L25.2903 22.589Z" fill="#7DA571"/>
<path d="M11.2602 23.4688L11.8781 23.5591C11.9137 23.5645 11.9465 23.5673 11.9793 23.5673C12.3211 23.5673 12.6191 23.3184 12.6711 22.9684C12.7285 22.5856 12.4633 22.2301 12.0805 22.1727L11.4625 22.0825C11.077 22.0196 10.7242 22.2903 10.6668 22.6731C10.6121 23.056 10.8774 23.4142 11.2602 23.4688H11.2602Z" fill="#7DA571"/>
<path d="M20.7487 23.4254L21.3667 23.5157C21.4022 23.5211 21.435 23.5239 21.4678 23.5239C21.8096 23.5239 22.1077 23.275 22.1596 22.925C22.217 22.5422 21.9518 22.1868 21.569 22.1294L20.951 22.0391C20.5655 21.9762 20.2127 22.2469 20.1553 22.6297C20.1006 23.0126 20.3659 23.368 20.7487 23.4254H20.7487Z" fill="#7DA571"/>
<path d="M0.00282307 49.6587V55.3161C0.00282307 55.7044 0.31454 56.0161 0.702823 56.0161H55.3028C55.6911 56.0161 56.0028 55.7044 56.0028 55.3161V49.6587C56.0028 49.2704 55.6911 48.9587 55.3028 48.9587H54.1025C54.2419 48.6579 54.3267 48.3298 54.3267 47.9771L54.3294 36.0988C54.3294 35.2129 53.8099 34.4554 53.0607 34.0917C53.0689 34.0507 53.0853 34.0152 53.0853 33.9714V22.8288C53.8208 22.4624 54.3294 21.7104 54.3294 20.8354V17.6308C54.3294 14.2265 52.4728 11.0874 49.4841 9.44147C48.9262 9.13522 48.5817 8.54183 48.5817 7.8993V6.52394C49.268 6.35715 49.7821 5.7419 49.7821 5.00361V1.58292C49.7821 0.718843 49.0793 0.0161133 48.2152 0.0161133H41.7266C40.8625 0.0161133 40.1598 0.718843 40.1598 1.58292V5.00361C40.1598 5.80203 40.7613 6.45555 41.5351 6.55124V7.61489C41.5351 8.36956 41.1113 9.07502 40.4277 9.45512C37.4555 11.1067 35.6098 14.2403 35.6098 17.6339V20.8386C35.6098 21.7136 36.1211 22.4655 36.8539 22.832V33.9746C36.8539 34.0156 36.8703 34.0539 36.8785 34.0949C36.132 34.4558 35.6097 35.216 35.6097 36.1019L35.607 47.9774C35.607 48.3302 35.6918 48.661 35.8312 48.959H31.3332C31.7871 48.434 32.107 47.786 32.23 47.0559L32.4788 45.5629C32.6019 44.8301 32.3968 44.0863 31.9156 43.5176C31.6777 43.2387 31.3851 43.0172 31.0624 42.8641V40.5344C31.2675 40.4825 31.4999 40.4442 31.8143 40.4442C32.1972 40.4442 32.5089 40.1352 32.5143 39.7524C32.5143 39.6895 32.5116 38.5192 31.6612 37.357C32.662 36.9387 33.3702 35.9516 33.3702 34.8004V34.1524C33.3702 32.766 32.3448 31.6258 31.0158 31.4235V29.463C31.4834 29.2989 31.9045 29.02 32.2217 28.6208C32.7303 27.9809 32.9108 27.1551 32.7249 26.3622L32.6319 25.9739C31.4069 20.7977 26.8351 17.1805 21.5138 17.1805L13.0949 17.1832C7.60976 17.1832 2.89029 21.0933 1.87039 26.4827C1.72273 27.262 1.93055 28.0604 2.4364 28.6729C2.77 29.0749 3.21025 29.3483 3.69423 29.4987V31.4292C2.36808 31.6343 1.34538 32.7745 1.34538 34.1581V34.8061C1.34538 35.9272 2.01804 36.8925 2.98051 37.3272C2.02893 38.4811 2.19847 39.7827 2.20939 39.8538C2.25861 40.1956 2.55393 40.4527 2.90119 40.4527C3.25939 40.4527 3.51916 40.4937 3.74063 40.562V42.8398C3.38243 42.9929 3.05704 43.2198 2.79724 43.5233C2.31599 44.0894 2.11091 44.8331 2.23396 45.5687L2.48279 47.0616C2.60583 47.7917 2.92575 48.4398 3.37963 48.9648H0.702686C0.314403 48.9593 0.00268555 49.2738 0.00268555 49.6593L0.00282307 49.6587ZM5.14068 42.6531V41.1738C5.49342 41.2941 5.92545 41.3816 6.51331 41.3816C7.58515 41.3816 8.14571 41.0918 8.64068 40.8375C9.06178 40.6187 9.39262 40.4492 10.1255 40.4492C10.8583 40.4492 11.1891 40.6214 11.6102 40.8375C12.1051 41.0918 12.6657 41.3816 13.7376 41.3816C14.8095 41.3816 15.3727 41.0918 15.865 40.8375C16.2861 40.6187 16.6169 40.4492 17.3497 40.4492C18.0826 40.4492 18.4161 40.6214 18.8345 40.8375C19.3294 41.0918 19.89 41.3816 20.9619 41.3816C22.0365 41.3816 22.597 41.0918 23.0892 40.8375C23.5103 40.6187 23.8412 40.4492 24.574 40.4492C25.3096 40.4492 25.6404 40.6214 26.0615 40.8375C26.5564 41.0918 27.117 41.3816 28.1916 41.3816C28.8315 41.3816 29.2854 41.2777 29.6573 41.141V42.6503L26.9584 42.6531C25.3206 42.6531 23.7811 43.2902 22.6217 44.4495L21.2983 45.773L19.9749 44.4495C18.8183 43.2902 17.276 42.6531 15.6382 42.6531L5.14068 42.6531ZM31.9703 34.1572V34.8052C31.9703 35.5626 31.355 36.1779 30.5977 36.1779L13.4694 36.1751C13.6444 36.1724 13.8194 36.1068 13.9533 35.9728L15.8674 34.0614C16.6987 33.2302 17.8061 32.7708 18.9846 32.7708H30.3162C30.3517 32.7708 30.3846 32.7544 30.4174 32.7516C30.4775 32.7681 30.5322 32.7872 30.5978 32.7872C31.3525 32.7845 31.9705 33.3997 31.9705 34.1571L31.9703 34.1572ZM5.09168 31.3681V29.6318H29.6134V31.3681H18.9818C17.4286 31.3681 15.9712 31.9724 14.8747 33.0689L13.4556 34.4853L12.0393 33.0716C10.9428 31.9752 9.48264 31.3708 7.93221 31.3708L5.09168 31.3681ZM3.24599 26.7415C4.1401 22.0138 8.2827 18.5823 13.095 18.5823H21.5139C26.1815 18.5823 30.1925 21.7542 31.2677 26.2963L31.3607 26.6846C31.4509 27.0592 31.3634 27.4503 31.1228 27.7537C30.8822 28.0572 30.5239 28.2322 30.1384 28.2322L4.48203 28.235C4.10742 28.235 3.75466 28.0682 3.51407 27.7811C3.27618 27.4885 3.17774 27.1111 3.24611 26.742L3.24599 26.7415ZM2.74561 34.1573C2.74561 33.3999 3.36084 32.7847 4.11824 32.7847H4.45456C4.48191 32.7847 4.50652 32.771 4.53113 32.7683H7.92998C9.1085 32.7683 10.2159 33.2277 11.0472 34.059L12.9585 35.9703C13.0925 36.1043 13.2675 36.1699 13.4425 36.1726H4.11289C3.35549 36.1726 2.74026 35.5574 2.74026 34.8L2.74299 34.1574L2.74561 34.1573ZM4.78548 37.6218C4.80735 37.6108 4.81829 37.589 4.83743 37.5753H29.9443C30.576 38.0839 30.8685 38.6772 31.0025 39.1147C30.4228 39.2159 30.0373 39.4128 29.6873 39.596C29.2662 39.8147 28.9354 39.9843 28.1998 39.9843C27.4642 39.9843 27.1334 39.812 26.7123 39.596C26.2174 39.3417 25.6568 39.0518 24.5822 39.0518C23.5103 39.0518 22.9471 39.3417 22.4548 39.596C22.0337 39.8147 21.7029 39.9843 20.97 39.9843C20.2372 39.9843 19.9037 39.812 19.4853 39.596C18.9904 39.3417 18.4298 39.0518 17.3579 39.0518C16.2833 39.0518 15.7228 39.3417 15.2305 39.596C14.8094 39.8147 14.4786 39.9843 13.7458 39.9843C13.0129 39.9843 12.6821 39.812 12.261 39.596C11.7661 39.3417 11.2055 39.0518 10.1336 39.0518C9.05899 39.0518 8.4985 39.3417 8.00626 39.596C7.58517 39.8147 7.25432 39.9843 6.52149 39.9843C5.78866 39.9843 5.45784 39.812 5.03672 39.596C4.67031 39.4073 4.2656 39.1968 3.64218 39.1038C3.72694 38.6663 4.00311 38.062 4.78514 37.6218L4.78548 37.6218ZM3.86673 44.4277C4.03352 44.2308 4.26048 44.1023 4.5093 44.0558H15.6379C16.8847 44.0558 18.1043 44.5617 18.9847 45.4421L20.8031 47.2605C20.9399 47.3973 21.1176 47.4656 21.2981 47.4656C21.4785 47.4656 21.6563 47.3973 21.793 47.2605L23.6114 45.4421C24.5055 44.548 25.6923 44.0558 26.9582 44.0558H30.2066C30.4555 44.105 30.6824 44.2335 30.8492 44.4277C31.0625 44.6792 31.1555 45.0101 31.1008 45.3382L30.8519 46.8312C30.6523 48.0343 29.6215 48.9065 28.4019 48.9065L6.31344 48.9038C5.0939 48.9038 4.06308 48.0315 3.86344 46.8285L3.61461 45.3355C3.55993 45.0101 3.65289 44.6792 3.86618 44.4277L3.86673 44.4277ZM51.6851 23.0721V33.8619H38.2535V23.0721H51.6851ZM41.5568 1.58277C41.5568 1.4898 41.6307 1.41597 41.7236 1.41597H48.2123C48.3052 1.41597 48.3791 1.4898 48.3791 1.58277V5.00346C48.3791 5.09643 48.3052 5.17025 48.2123 5.17025H41.7236C41.6307 5.17025 41.5568 5.09643 41.5568 5.00346V1.58277ZM37.0068 17.631C37.0068 14.7462 38.5764 12.0802 41.1057 10.6747C42.2323 10.0485 42.9323 8.87551 42.9323 7.61222V6.56768H47.1787V7.89656C47.1787 9.05044 47.8022 10.1114 48.8057 10.6665C51.3486 12.0665 52.9291 14.7352 52.9291 17.6309V20.8356C52.9291 21.2949 52.5545 21.6695 52.0951 21.6695L37.8438 21.6723C37.3844 21.6723 37.0098 21.2977 37.0098 20.8383L37.0068 17.631ZM37.9338 48.9042C37.4224 48.9042 37.0068 48.4885 37.0068 47.98V36.0989C37.0068 35.6395 37.3814 35.2649 37.8408 35.2649H52.0893C52.5487 35.2649 52.9233 35.6395 52.9233 36.0989L52.926 47.9772C52.926 48.4885 52.5104 48.9014 52.0018 48.9014C51.9034 48.9014 51.8104 48.9205 51.7256 48.9588H38.2093C38.1246 48.9232 38.0316 48.9041 37.9332 48.9041L37.9338 48.9042ZM1.40217 50.3588H54.6022V54.6162H1.40217V50.3588Z" fill="#7DA571"/>
<path d="M47.5455 14.2842C48.7978 14.9732 49.5744 16.2885 49.5744 17.7131V19.422C49.5744 19.8103 49.8861 20.122 50.2744 20.122C50.6626 20.122 50.9744 19.8103 50.9744 19.422V17.7131C50.9744 15.7771 49.9189 13.9943 48.2208 13.0592C47.8845 12.8732 47.4552 12.9963 47.2693 13.3353C47.0833 13.6717 47.2064 14.0982 47.5454 14.2842L47.5455 14.2842Z" fill="#7DA571"/>
<path d="M50.274 38.0513C49.8857 38.0513 49.574 38.363 49.574 38.7513V45.6283C49.574 46.0165 49.8857 46.3283 50.274 46.3283C50.6623 46.3283 50.974 46.0165 50.974 45.6283V38.7513C50.974 38.3658 50.6623 38.0513 50.274 38.0513Z" fill="#7DA571"/>
</svg>
